<svg id="e3756ccd-1dcf-40b9-88a7-9299a8a010f7" data-name="be4ca2c6-8353-4549-b8d6-9911e2d530c1" xmlns="http://www.w3.org/2000/svg" width="104.77" height="24.5" viewBox="0 0 104.77 24.5">
  <defs>
    <style>
      .b90c2fb7-bc70-498e-9c48-594f50efe4dd {
        fill: #e6e6e6;
      }
    </style>
  </defs>
  <title>buttons</title>
  <g id="b6e90a48-2649-41ec-81af-86b3e730349b" data-name="g154">
    <g id="bef37847-62c3-4b20-b634-b3b23531c1ce" data-name="Layer 1">
      <g id="a103690e-86f3-4091-ada4-ec2f32c1351e" data-name="g138">
        <circle id="bbc2a97b-581b-4a7c-891d-3ceb0709a6c0" data-name="circle134" class="b90c2fb7-bc70-498e-9c48-594f50efe4dd" cx="92.52" cy="12.25" r="1.93"/>
        <path id="b84d9412-f346-4c87-91bc-9fc59f9f71c0" data-name="path136" class="b90c2fb7-bc70-498e-9c48-594f50efe4dd" d="M101.18,3.59a12.24,12.24,0,1,0,3.59,8.66A12.2,12.2,0,0,0,101.18,3.59Zm-.11,9c-.17.19-3.84,5-8.55,5s-8.41-4.74-8.55-5a.81.81,0,0,1,0-1c.16-.19,3.84-4.63,8.55-4.63s8.38,4.44,8.55,4.63A.9.9,0,0,1,101.07,12.6Z" transform="translate(0 0)"/>
      </g>
    </g>
  </g>
  <path id="ab830c59-c32a-4663-b2bd-0d561a359cdc" data-name="path12" class="b90c2fb7-bc70-498e-9c48-594f50efe4dd" d="M21,3.65a12.24,12.24,0,0,0-17.3-.13l0,0a12.24,12.24,0,0,0-.11,17.31h0A12.24,12.24,0,0,0,21,3.65Zm-2.21,9.42H13.06v5.68a.81.81,0,0,1-.81.81.85.85,0,0,1-.82-.81V13.07H5.74a.82.82,0,0,1,0-1.64h5.69V5.75a.82.82,0,0,1,.82-.81.83.83,0,0,1,.81.81v5.69h5.69a.82.82,0,0,1,.82.82.81.81,0,0,1-.81.81Z" transform="translate(0 0)"/>
  <path id="ab1e07d5-415a-4b65-8f5b-4405f31e0398" data-name="path14" class="b90c2fb7-bc70-498e-9c48-594f50efe4dd" d="M66.63,0a12.25,12.25,0,0,0-.08,24.5h.08a12.25,12.25,0,0,0,0-24.5Zm0,6.81A3.63,3.63,0,1,1,63,10.45,3.64,3.64,0,0,1,66.63,6.81Zm7,13.36a10.61,10.61,0,0,1-7,2.64h0a10.48,10.48,0,0,1-6.91-2.64V20a6.38,6.38,0,0,1,1.08-3.54,6.48,6.48,0,0,1,2.54-2.13,5.16,5.16,0,0,0,6.69,0A6.21,6.21,0,0,1,73.65,20Z" transform="translate(0 0)"/>
  <path id="a44493d2-6404-450f-9bcf-fedb000fffea" data-name="path16" class="b90c2fb7-bc70-498e-9c48-594f50efe4dd" d="M38.19,0a12.25,12.25,0,1,0,0,24.5h.08A12.26,12.26,0,0,0,50.46,12.17h0A12.28,12.28,0,0,0,38.19,0ZM34.46,15.75a.8.8,0,0,1,0,1.11.7.7,0,0,1-.55.22.87.87,0,0,1-.57-.24l-4-4a.8.8,0,0,1,0-1.11l4-4a.8.8,0,0,1,1.11,0,.81.81,0,0,1,0,1.12l-3.4,3.48Zm5.88-9.29-3.15,12a.78.78,0,0,1-.76.6.61.61,0,0,1-.19,0,.8.8,0,0,1-.58-1v0L38.81,6a.81.81,0,0,1,1-.57h0a.77.77,0,0,1,.53,1Zm6.75,6.29-4,4a.77.77,0,0,1-.57.25.78.78,0,0,1-.71-.85.87.87,0,0,1,.16-.4l3.43-3.48L42,8.75a.8.8,0,0,1,0-1.11.81.81,0,0,1,1.12,0l4,4a.76.76,0,0,1,0,1.07Z" transform="translate(0 0)"/>
</svg>
