<svg width="161" height="132" viewBox="0 0 161 132" fill="none" xmlns="http://www.w3.org/2000/svg">
<path d="M13.5938 50.0398C13.5938 50.9356 13.4323 51.769 13.1094 52.5398C12.7865 53.3002 12.3229 53.9617 11.7188 54.5242C11.125 55.0763 10.401 55.5086 9.54688 55.8211C8.70313 56.1336 7.76042 56.2898 6.71875 56.2898C6.28125 56.2898 5.83334 56.269 5.375 56.2273C4.91667 56.1856 4.47396 56.1231 4.04688 56.0398C3.61979 55.9669 3.20833 55.8836 2.8125 55.7898C2.42708 55.6856 2.08333 55.5711 1.78125 55.4461C1.4375 55.3106 1.15104 55.1856 0.921875 55.0711C0.692709 54.9461 0.510417 54.8211 0.375 54.6961C0.239583 54.5606 0.140625 54.42 0.078125 54.2742C0.0260417 54.1284 0 53.9669 0 53.7898C0 53.394 0.114583 53.0763 0.34375 52.8367C0.572917 52.5971 0.875 52.4773 1.25 52.4773C1.42708 52.4773 1.60417 52.5034 1.78125 52.5554C1.96875 52.6075 2.15104 52.67 2.32813 52.7429C2.51563 52.8159 2.69271 52.894 2.85938 52.9773C3.02604 53.0606 3.18229 53.1284 3.32813 53.1804C3.48438 53.2325 3.67709 53.295 3.90625 53.3679C4.13542 53.4409 4.38542 53.5138 4.65625 53.5867C4.9375 53.6492 5.22917 53.7065 5.53125 53.7586C5.83334 53.8002 6.13021 53.8211 6.42188 53.8211C7.05729 53.8211 7.64584 53.7429 8.1875 53.5867C8.73959 53.4304 9.21355 53.2013 9.60938 52.8992C10.0052 52.5867 10.3125 52.2013 10.5313 51.7429C10.7604 51.2846 10.875 50.7481 10.875 50.1336C10.875 49.1961 10.625 48.4408 10.125 47.8679C9.63542 47.2846 8.96875 46.8575 8.125 46.5867L4.79688 45.4929C4.15104 45.2742 3.55729 45.0138 3.01563 44.7117C2.47396 44.3992 2.00521 44.0242 1.60938 43.5867C1.22396 43.1388 0.921875 42.6179 0.703125 42.0242C0.484375 41.4304 0.375 40.7429 0.375 39.9617C0.375 38.9617 0.557292 38.1075 0.921875 37.3992C1.28646 36.6908 1.80729 36.0867 2.48438 35.5867C3.14063 35.0971 3.875 34.7533 4.6875 34.5554C5.51042 34.3471 6.44271 34.2429 7.48438 34.2429C7.8698 34.2429 8.25 34.2638 8.625 34.3054C9 34.3471 9.35417 34.3992 9.6875 34.4617C10.0208 34.5242 10.3229 34.5971 10.5938 34.6804C10.875 34.7533 11.1094 34.8315 11.2969 34.9148C11.9635 35.196 12.4271 35.4617 12.6875 35.7117C12.9479 35.9617 13.0781 36.2481 13.0781 36.5711C13.0781 36.9565 12.9635 37.2481 12.7344 37.4461C12.5052 37.6336 12.2396 37.7273 11.9375 37.7273C11.8125 37.7273 11.6719 37.7065 11.5156 37.6648C11.3698 37.6231 11.2188 37.5763 11.0625 37.5242C10.9063 37.4721 10.7552 37.4148 10.6094 37.3523C10.4635 37.2898 10.3281 37.2325 10.2031 37.1804C9.77605 37.0138 9.32813 36.8783 8.85938 36.7742C8.39063 36.6596 7.82292 36.6023 7.15625 36.6023C6.58334 36.6023 6.04688 36.6596 5.54688 36.7742C5.05729 36.8783 4.61459 37.0658 4.21875 37.3367C3.42708 37.8783 3.03125 38.7638 3.03125 39.9929C3.03125 40.4304 3.10938 40.8158 3.26563 41.1492C3.42188 41.4721 3.63021 41.7533 3.89063 41.9929C4.15104 42.2325 4.44792 42.4356 4.78125 42.6023C5.125 42.769 5.47917 42.9148 5.84375 43.0398L9.20313 44.1179C9.8698 44.3367 10.4688 44.6179 11 44.9617C11.5417 45.295 12.0052 45.7013 12.3906 46.1804C12.776 46.6596 13.0729 47.2221 13.2813 47.8679C13.4896 48.5033 13.5938 49.2273 13.5938 50.0398Z" fill="white"/>
<path d="M20.4375 54.6492C20.4375 54.8471 20.4011 55.0346 20.3281 55.2117C20.2552 55.3888 20.1563 55.545 20.0313 55.6804C19.9063 55.8054 19.7604 55.9044 19.5938 55.9773C19.4271 56.0502 19.25 56.0867 19.0625 56.0867C18.875 56.0867 18.6979 56.0502 18.5313 55.9773C18.3646 55.9044 18.2188 55.8054 18.0938 55.6804C17.9688 55.545 17.8698 55.3888 17.7969 55.2117C17.724 55.0346 17.6875 54.8471 17.6875 54.6492V35.8679C17.6875 35.67 17.724 35.4825 17.7969 35.3054C17.8698 35.1283 17.9688 34.9773 18.0938 34.8523C18.2188 34.7169 18.3646 34.6127 18.5313 34.5398C18.6979 34.4669 18.875 34.4304 19.0625 34.4304C19.25 34.4304 19.4271 34.4669 19.5938 34.5398C19.7604 34.6127 19.9063 34.7169 20.0313 34.8523C20.1563 34.9773 20.2552 35.1283 20.3281 35.3054C20.4011 35.4825 20.4375 35.67 20.4375 35.8679V54.6492Z" fill="white"/>
<path d="M28.5625 54.6492C28.5625 54.8471 28.5261 55.0346 28.4531 55.2117C28.3802 55.3888 28.2813 55.545 28.1563 55.6804C28.0313 55.8054 27.8854 55.9044 27.7188 55.9773C27.5521 56.0502 27.375 56.0867 27.1875 56.0867C27 56.0867 26.8229 56.0502 26.6563 55.9773C26.4896 55.9044 26.3438 55.8054 26.2188 55.6804C26.0938 55.545 25.9948 55.3888 25.9219 55.2117C25.849 55.0346 25.8125 54.8471 25.8125 54.6492V35.8679C25.8125 35.67 25.849 35.4825 25.9219 35.3054C25.9948 35.1283 26.0938 34.9773 26.2188 34.8523C26.3438 34.7169 26.4896 34.6127 26.6563 34.5398C26.8229 34.4669 27 34.4304 27.1875 34.4304C27.375 34.4304 27.5521 34.4669 27.7188 34.5398C27.8854 34.6127 28.0313 34.7169 28.1563 34.8523C28.2813 34.9773 28.3802 35.1283 28.4531 35.3054C28.5261 35.4825 28.5625 35.67 28.5625 35.8679V54.6492Z" fill="white"/>
<path d="M52.3125 54.6179C52.3125 55.0346 52.1875 55.3836 51.9375 55.6648C51.6979 55.9461 51.3854 56.0867 51 56.0867C50.6042 56.0867 50.2865 55.9461 50.0469 55.6648C49.8073 55.3836 49.6875 55.0346 49.6875 54.6179V39.8367L44.7188 51.6804C44.5 52.2221 44.2709 52.5971 44.0313 52.8054C43.7917 53.0138 43.4896 53.1179 43.125 53.1179C42.7604 53.1179 42.4584 53.0138 42.2188 52.8054C41.9792 52.5971 41.7448 52.2221 41.5156 51.6804L36.5625 39.8367V54.6179C36.5625 55.0346 36.4375 55.3836 36.1875 55.6648C35.9479 55.9461 35.6354 56.0867 35.25 56.0867C34.8646 56.0867 34.5469 55.9461 34.2969 55.6648C34.0573 55.3836 33.9375 55.0346 33.9375 54.6179V35.8992C33.9375 35.7013 33.974 35.5138 34.0469 35.3367C34.1302 35.1596 34.2448 35.0033 34.3906 34.8679C34.5469 34.7325 34.724 34.6283 34.9219 34.5554C35.1302 34.4721 35.3594 34.4304 35.6094 34.4304C36.0261 34.4304 36.375 34.5398 36.6563 34.7585C36.9479 34.9773 37.2136 35.3679 37.4531 35.9304L43.1563 49.5711L48.8438 35.9304C49.0834 35.3679 49.349 34.9773 49.6406 34.7585C49.9323 34.5398 50.2865 34.4304 50.7031 34.4304C51.2031 34.4304 51.5938 34.5763 51.875 34.8679C52.1667 35.1596 52.3125 35.5033 52.3125 35.8992V54.6179Z" fill="white"/>
<path d="M60.4375 54.6492C60.4375 54.8471 60.4011 55.0346 60.3282 55.2117C60.2552 55.3888 60.1563 55.545 60.0313 55.6804C59.9063 55.8054 59.7604 55.9044 59.5938 55.9773C59.4271 56.0502 59.25 56.0867 59.0625 56.0867C58.875 56.0867 58.6979 56.0502 58.5313 55.9773C58.3646 55.9044 58.2188 55.8054 58.0938 55.6804C57.9688 55.545 57.8698 55.3888 57.7969 55.2117C57.724 55.0346 57.6875 54.8471 57.6875 54.6492V35.8679C57.6875 35.67 57.724 35.4825 57.7969 35.3054C57.8698 35.1283 57.9688 34.9773 58.0938 34.8523C58.2188 34.7169 58.3646 34.6127 58.5313 34.5398C58.6979 34.4669 58.875 34.4304 59.0625 34.4304C59.25 34.4304 59.4271 34.4669 59.5938 34.5398C59.7604 34.6127 59.9063 34.7169 60.0313 34.8523C60.1563 34.9773 60.2552 35.1283 60.3282 35.3054C60.4011 35.4825 60.4375 35.67 60.4375 35.8679V54.6492Z" fill="white"/>
<path d="M71.0938 36.0867L66.2032 55.1023C66.0886 55.5502 65.9271 55.8784 65.7188 56.0867C65.5104 56.3054 65.1771 56.4148 64.7188 56.4148C64.3646 56.4148 64.0938 56.3106 63.9063 56.1023C63.7292 55.9044 63.6407 55.6856 63.6407 55.4461C63.6407 55.269 63.6511 55.0971 63.6719 54.9304C63.7032 54.7534 63.7448 54.5867 63.7969 54.4304L68.6875 35.4148C68.8021 34.9669 68.9636 34.6388 69.1719 34.4304C69.3802 34.2117 69.7136 34.1023 70.1719 34.1023C70.5261 34.1023 70.7917 34.2065 70.9688 34.4148C71.1563 34.6127 71.25 34.8315 71.25 35.071C71.25 35.2481 71.2344 35.4252 71.2032 35.6023C71.1823 35.769 71.1459 35.9304 71.0938 36.0867Z" fill="#DC1693"/>
<path d="M85.9532 55.8679H74.75C74.1771 55.8679 73.7084 55.7065 73.3438 55.3836C72.9896 55.0606 72.8125 54.6023 72.8125 54.0086C72.8125 53.5919 72.8907 53.2065 73.0469 52.8523C73.2136 52.4981 73.474 52.1596 73.8282 51.8367L80.9063 45.3054C81.4063 44.8367 81.8282 44.3992 82.1719 43.9929C82.5157 43.5763 82.7917 43.1804 83 42.8054C83.2188 42.42 83.3698 42.0398 83.4532 41.6648C83.5469 41.2898 83.5938 40.9044 83.5938 40.5086C83.5938 39.9565 83.4896 39.4669 83.2813 39.0398C83.0834 38.6023 82.8021 38.2377 82.4375 37.9461C82.073 37.644 81.625 37.4148 81.0938 37.2586C80.573 37.1023 79.9948 37.0242 79.3594 37.0242C79.0157 37.0242 78.6771 37.0554 78.3438 37.1179C78.0209 37.17 77.7136 37.2377 77.4219 37.3211C77.1302 37.394 76.8698 37.4773 76.6407 37.5711C76.4115 37.6544 76.2188 37.7273 76.0625 37.7898C75.9063 37.8523 75.7292 37.9356 75.5313 38.0398C75.3438 38.1336 75.1563 38.2273 74.9688 38.3211C74.7813 38.4044 74.6042 38.4825 74.4375 38.5554C74.2813 38.6179 74.1511 38.6492 74.0469 38.6492C73.9323 38.6492 73.8125 38.6283 73.6875 38.5867C73.5729 38.545 73.4636 38.4773 73.3594 38.3836C73.2657 38.2898 73.1875 38.1752 73.125 38.0398C73.0625 37.894 73.0313 37.7221 73.0313 37.5242C73.0313 37.1908 73.1511 36.8992 73.3907 36.6492C73.6407 36.3992 74.0209 36.1283 74.5313 35.8367C75.1771 35.4825 75.9427 35.196 76.8282 34.9773C77.7136 34.7585 78.625 34.6492 79.5625 34.6492C80.4896 34.6492 81.2865 34.7377 81.9532 34.9148C82.6302 35.0919 83.2605 35.3575 83.8438 35.7117C84.5938 36.1804 85.2032 36.8315 85.6719 37.6648C86.1407 38.4981 86.375 39.4773 86.375 40.6023C86.375 41.2481 86.2709 41.8627 86.0625 42.4461C85.8646 43.019 85.6042 43.5606 85.2813 44.0711C84.9688 44.5815 84.6094 45.0606 84.2032 45.5086C83.7969 45.9461 83.3907 46.3471 82.9844 46.7117L75.5938 53.4304H85.9532C86.2552 53.4304 86.5209 53.5502 86.75 53.7898C86.9896 54.0294 87.1094 54.3159 87.1094 54.6492C87.1094 54.9825 86.9948 55.269 86.7657 55.5086C86.5469 55.7481 86.2761 55.8679 85.9532 55.8679Z" fill="#DC1693"/>
<path d="M97.4219 56.2898C96.3282 56.2898 95.3282 56.0971 94.4219 55.7117C93.5157 55.3263 92.7344 54.7065 92.0782 53.8523C91.4219 52.9981 90.9115 51.8836 90.5469 50.5086C90.1823 49.1336 90 47.4513 90 45.4617C90 43.5138 90.1823 41.8575 90.5469 40.4929C90.9115 39.1179 91.4219 37.9981 92.0782 37.1336C92.7344 36.269 93.5157 35.6388 94.4219 35.2429C95.3282 34.8471 96.3282 34.6492 97.4219 34.6492C98.5053 34.6492 99.5001 34.8471 100.406 35.2429C101.323 35.6388 102.109 36.269 102.766 37.1336C103.422 37.9981 103.932 39.1179 104.297 40.4929C104.662 41.8575 104.844 43.5138 104.844 45.4617C104.844 47.4513 104.662 49.1336 104.297 50.5086C103.932 51.8836 103.422 52.9981 102.766 53.8523C102.109 54.7065 101.323 55.3263 100.406 55.7117C99.5001 56.0971 98.5053 56.2898 97.4219 56.2898ZM97.4219 36.9304C96.6928 36.9304 96.0417 37.0867 95.4688 37.3992C94.8959 37.7117 94.4063 38.2065 94 38.8836C93.6042 39.5606 93.3021 40.4408 93.0938 41.5242C92.8855 42.6075 92.7813 43.92 92.7813 45.4617C92.7813 47.0242 92.8855 48.3471 93.0938 49.4304C93.3125 50.5138 93.6198 51.3992 94.0157 52.0867C94.4115 52.7638 94.8959 53.2534 95.4688 53.5554C96.0521 53.8575 96.7032 54.0086 97.4219 54.0086C98.1407 54.0086 98.7865 53.8575 99.3594 53.5554C99.9323 53.2534 100.417 52.7638 100.813 52.0867C101.219 51.3992 101.526 50.5138 101.734 49.4304C101.953 48.3471 102.063 47.0242 102.063 45.4617C102.063 43.92 101.953 42.6075 101.734 41.5242C101.526 40.4408 101.224 39.5606 100.828 38.8836C100.432 38.2065 99.948 37.7117 99.3751 37.3992C98.8021 37.0867 98.1511 36.9304 97.4219 36.9304Z" fill="#DC1693"/>
<path d="M120.141 55.8679H108.938C108.365 55.8679 107.896 55.7065 107.531 55.3836C107.177 55.0606 107 54.6023 107 54.0086C107 53.5919 107.078 53.2065 107.234 52.8523C107.401 52.4981 107.662 52.1596 108.016 51.8367L115.094 45.3054C115.594 44.8367 116.016 44.3992 116.359 43.9929C116.703 43.5763 116.979 43.1804 117.188 42.8054C117.406 42.42 117.557 42.0398 117.641 41.6648C117.734 41.2898 117.781 40.9044 117.781 40.5086C117.781 39.9565 117.677 39.4669 117.469 39.0398C117.271 38.6023 116.99 38.2377 116.625 37.9461C116.26 37.644 115.813 37.4148 115.281 37.2586C114.76 37.1023 114.182 37.0242 113.547 37.0242C113.203 37.0242 112.865 37.0554 112.531 37.1179C112.208 37.17 111.901 37.2377 111.609 37.3211C111.318 37.394 111.057 37.4773 110.828 37.5711C110.599 37.6544 110.406 37.7273 110.25 37.7898C110.094 37.8523 109.917 37.9356 109.719 38.0398C109.531 38.1336 109.344 38.2273 109.156 38.3211C108.969 38.4044 108.792 38.4825 108.625 38.5554C108.469 38.6179 108.339 38.6492 108.234 38.6492C108.12 38.6492 108 38.6283 107.875 38.5867C107.76 38.545 107.651 38.4773 107.547 38.3836C107.453 38.2898 107.375 38.1752 107.313 38.0398C107.25 37.894 107.219 37.7221 107.219 37.5242C107.219 37.1908 107.339 36.8992 107.578 36.6492C107.828 36.3992 108.208 36.1283 108.719 35.8367C109.365 35.4825 110.13 35.196 111.016 34.9773C111.901 34.7585 112.813 34.6492 113.75 34.6492C114.677 34.6492 115.474 34.7377 116.141 34.9148C116.818 35.0919 117.448 35.3575 118.031 35.7117C118.781 36.1804 119.391 36.8315 119.859 37.6648C120.328 38.4981 120.563 39.4773 120.563 40.6023C120.563 41.2481 120.458 41.8627 120.25 42.4461C120.052 43.019 119.792 43.5606 119.469 44.0711C119.156 44.5815 118.797 45.0606 118.391 45.5086C117.984 45.9461 117.578 46.3471 117.172 46.7117L109.781 53.4304H120.141C120.443 53.4304 120.708 53.5502 120.938 53.7898C121.177 54.0294 121.297 54.3159 121.297 54.6492C121.297 54.9825 121.182 55.269 120.953 55.5086C120.734 55.7481 120.464 55.8679 120.141 55.8679Z" fill="#DC1693"/>
<path d="M130.141 56.2898C129.766 56.2898 129.38 56.2742 128.984 56.2429C128.589 56.2221 128.203 56.1856 127.828 56.1336C127.464 56.0919 127.109 56.0398 126.766 55.9773C126.432 55.9148 126.135 55.8471 125.875 55.7742C125.333 55.6284 124.948 55.4565 124.719 55.2586C124.49 55.0502 124.375 54.7846 124.375 54.4617C124.375 54.045 124.474 53.7377 124.672 53.5398C124.87 53.3419 125.135 53.2429 125.469 53.2429C125.677 53.2429 125.901 53.2638 126.141 53.3054C126.391 53.3367 126.708 53.3992 127.094 53.4929C127.573 53.6075 128.057 53.7117 128.547 53.8054C129.037 53.8992 129.578 53.9461 130.172 53.9461C130.953 53.9461 131.672 53.8523 132.328 53.6648C132.995 53.4669 133.568 53.1752 134.047 52.7898C134.526 52.394 134.901 51.9096 135.172 51.3367C135.443 50.7533 135.578 50.0763 135.578 49.3054C135.578 48.5763 135.469 47.9252 135.25 47.3523C135.031 46.7794 134.719 46.295 134.313 45.8992C133.917 45.5033 133.432 45.2013 132.859 44.9929C132.297 44.7742 131.667 44.6648 130.969 44.6648C130.469 44.6648 130.005 44.6961 129.578 44.7586C129.162 44.8106 128.776 44.8731 128.422 44.9461C128.068 45.0086 127.734 45.0711 127.422 45.1336C127.12 45.1856 126.828 45.2117 126.547 45.2117C126.13 45.2117 125.807 45.1075 125.578 44.8992C125.349 44.6804 125.234 44.3367 125.234 43.8679V36.7273C125.234 36.4356 125.281 36.1856 125.375 35.9773C125.469 35.769 125.563 35.6127 125.656 35.5086C125.75 35.4148 125.901 35.321 126.109 35.2273C126.328 35.1231 126.573 35.071 126.844 35.071H136.188C136.49 35.071 136.755 35.1908 136.984 35.4304C137.214 35.67 137.328 35.9565 137.328 36.2898C137.328 36.6231 137.219 36.8992 137 37.1179C136.781 37.3263 136.51 37.4304 136.188 37.4304H127.859V42.6492C128.453 42.5554 129.068 42.4721 129.703 42.3992C130.349 42.3158 130.984 42.2742 131.609 42.2742C132.662 42.2742 133.604 42.4356 134.438 42.7586C135.271 43.0815 135.974 43.545 136.547 44.1492C137.13 44.7533 137.573 45.4877 137.875 46.3523C138.177 47.2065 138.328 48.17 138.328 49.2429C138.328 50.3471 138.13 51.3367 137.734 52.2117C137.349 53.0867 136.797 53.8263 136.078 54.4304C135.359 55.0346 134.495 55.4981 133.484 55.8211C132.484 56.1336 131.37 56.2898 130.141 56.2898Z" fill="#DC1693"/>
<path d="M78.875 8.32056L73.9843 27.3362C73.8698 27.7841 73.7083 28.1122 73.5 28.3206C73.2916 28.5393 72.9583 28.6487 72.5 28.6487C72.1458 28.6487 71.875 28.5445 71.6875 28.3362C71.5104 28.1383 71.4218 27.9195 71.4218 27.6799C71.4218 27.5029 71.4323 27.331 71.4531 27.1643C71.4843 26.9872 71.526 26.8206 71.5781 26.6643L76.4687 7.64869C76.5833 7.20077 76.7448 6.87265 76.9531 6.66431C77.1614 6.44556 77.4948 6.33619 77.9531 6.33619C78.3073 6.33619 78.5729 6.44035 78.75 6.64869C78.9375 6.8466 79.0312 7.06535 79.0312 7.30494C79.0312 7.48202 79.0156 7.6591 78.9843 7.83619C78.9635 8.00285 78.927 8.16431 78.875 8.32056Z" fill="#DC1793"/>
<path d="M95.625 20.0393C95.625 21.2893 95.4687 22.4352 95.1562 23.4768C94.8437 24.5081 94.3958 25.3987 93.8125 26.1487C93.2396 26.8987 92.5468 27.482 91.7343 27.8987C90.9218 28.3154 90.0104 28.5237 89 28.5237C88.4166 28.5237 87.8802 28.4664 87.3906 28.3518C86.9114 28.2372 86.4739 28.081 86.0781 27.8831C85.6927 27.6747 85.3541 27.4352 85.0625 27.1643C84.7708 26.8935 84.526 26.5966 84.3281 26.2737V33.055C84.3281 33.5237 84.2239 33.8622 84.0156 34.0706C83.8177 34.2893 83.4843 34.3987 83.0156 34.3987C82.5781 34.3987 82.2604 34.2893 82.0625 34.0706C81.8646 33.8622 81.7656 33.5237 81.7656 33.055V13.6018C81.7656 13.1331 81.8646 12.7945 82.0625 12.5862C82.2708 12.3674 82.5989 12.2581 83.0468 12.2581C83.901 12.2581 84.3281 12.706 84.3281 13.6018V14.3987C84.5156 14.107 84.7448 13.8206 85.0156 13.5393C85.2968 13.2581 85.6354 13.0081 86.0312 12.7893C86.4271 12.5601 86.8802 12.3779 87.3906 12.2424C87.9114 12.107 88.5 12.0393 89.1562 12.0393C90.1041 12.0393 90.9739 12.2216 91.7656 12.5862C92.5573 12.9404 93.2396 13.4612 93.8125 14.1487C94.3854 14.8258 94.8281 15.6643 95.1406 16.6643C95.4635 17.6539 95.625 18.7789 95.625 20.0393ZM93.0312 20.1956C93.0312 19.2997 92.9271 18.4872 92.7187 17.7581C92.5208 17.0289 92.2291 16.4091 91.8437 15.8987C91.4583 15.3779 90.9896 14.9768 90.4375 14.6956C89.8958 14.4143 89.2812 14.2737 88.5937 14.2737C87.875 14.2737 87.2396 14.4195 86.6875 14.7112C86.1458 15.0029 85.6875 15.4143 85.3125 15.9456C84.9375 16.4768 84.651 17.1122 84.4531 17.8518C84.2656 18.5914 84.1718 19.4143 84.1718 20.3206C84.1718 21.2477 84.2708 22.081 84.4687 22.8206C84.6666 23.5602 84.9531 24.1852 85.3281 24.6956C85.7031 25.206 86.1562 25.5966 86.6875 25.8674C87.2291 26.1383 87.8385 26.2737 88.5156 26.2737C89.2031 26.2737 89.8229 26.1279 90.375 25.8362C90.9271 25.5445 91.401 25.1331 91.7968 24.6018C92.1927 24.0602 92.4948 23.4195 92.7031 22.6799C92.9218 21.9299 93.0312 21.1018 93.0312 20.1956Z" fill="#DC1793"/>
<path d="M107.594 13.5706C107.594 13.9664 107.479 14.2633 107.25 14.4612C107.021 14.6591 106.708 14.7581 106.312 14.7581C106.198 14.7581 106.099 14.7581 106.016 14.7581C105.932 14.7476 105.849 14.7424 105.766 14.7424C105.682 14.7424 105.594 14.7424 105.5 14.7424C105.406 14.732 105.292 14.7268 105.156 14.7268C104.781 14.7268 104.385 14.8154 103.969 14.9924C103.562 15.1695 103.182 15.4404 102.828 15.8049C102.484 16.1591 102.198 16.607 101.969 17.1487C101.75 17.6799 101.641 18.3102 101.641 19.0393V26.9768C101.641 27.4456 101.536 27.7893 101.328 28.0081C101.12 28.2164 100.797 28.3206 100.359 28.3206C99.9114 28.3206 99.5833 28.2164 99.375 28.0081C99.1771 27.7893 99.0781 27.4456 99.0781 26.9768V13.6018C99.0781 13.1539 99.1771 12.8206 99.375 12.6018C99.5833 12.3726 99.9114 12.2581 100.359 12.2581C101.214 12.2581 101.641 12.706 101.641 13.6018V14.6018C101.818 14.3101 102.047 14.0237 102.328 13.7424C102.609 13.4612 102.927 13.2112 103.281 12.9924C103.646 12.7737 104.042 12.5966 104.469 12.4612C104.896 12.3258 105.349 12.2581 105.828 12.2581C106.099 12.2581 106.307 12.2737 106.453 12.3049C106.599 12.3362 106.745 12.3883 106.891 12.4612C107.089 12.5237 107.255 12.6383 107.391 12.8049C107.526 12.9612 107.594 13.2164 107.594 13.5706Z" fill="#DC1793"/>
<path d="M124.203 28.3206C123.953 28.3206 123.75 28.2945 123.594 28.2424C123.437 28.1904 123.307 28.1122 123.203 28.0081C123.099 27.8935 123.01 27.7581 122.937 27.6018C122.875 27.4352 122.807 27.2477 122.734 27.0393L120.969 21.8362H112.266L110.5 27.0081C110.427 27.2268 110.359 27.4195 110.297 27.5862C110.234 27.7529 110.151 27.8935 110.047 28.0081C109.943 28.1122 109.812 28.1904 109.656 28.2424C109.5 28.2945 109.292 28.3206 109.031 28.3206C108.615 28.3206 108.318 28.2008 108.141 27.9612C107.964 27.7216 107.875 27.4508 107.875 27.1487C107.875 26.982 107.896 26.8206 107.937 26.6643C107.979 26.5081 108.026 26.357 108.078 26.2112L114.094 9.38306C114.25 8.92473 114.401 8.5289 114.547 8.19556C114.703 7.85181 114.875 7.57056 115.062 7.35181C115.26 7.13306 115.49 6.9716 115.75 6.86744C116.01 6.75285 116.328 6.69556 116.703 6.69556C117.078 6.69556 117.396 6.75285 117.656 6.86744C117.927 6.9716 118.161 7.13306 118.359 7.35181C118.557 7.57056 118.734 7.85181 118.891 8.19556C119.047 8.5289 119.203 8.92473 119.359 9.38306L125.312 26.2112C125.365 26.357 125.411 26.5289 125.453 26.7268C125.495 26.9247 125.516 27.0758 125.516 27.1799C125.516 27.5029 125.401 27.7737 125.172 27.9924C124.943 28.2112 124.62 28.3206 124.203 28.3206ZM116.641 8.89869L113.062 19.4924H120.203L116.641 8.89869Z" fill="#DC1793"/>
<path d="M138.672 27.0081C138.672 27.3102 138.557 27.5706 138.328 27.7893C138.109 27.9977 137.833 28.1018 137.5 28.1018C137.177 28.1018 136.927 28.0393 136.75 27.9143C136.583 27.7789 136.396 27.5654 136.187 27.2737L132.25 21.8674L128.281 27.2737C128.073 27.5654 127.88 27.7789 127.703 27.9143C127.536 28.0393 127.292 28.1018 126.969 28.1018C126.635 28.1018 126.365 27.9977 126.156 27.7893C125.948 27.581 125.844 27.331 125.844 27.0393C125.844 26.8518 125.891 26.6643 125.984 26.4768C126.089 26.2893 126.203 26.107 126.328 25.9299L130.781 20.0706L126.516 14.4456C126.391 14.2685 126.281 14.0914 126.187 13.9143C126.094 13.7268 126.047 13.5393 126.047 13.3518C126.047 13.0601 126.161 12.8049 126.391 12.5862C126.63 12.3674 126.917 12.2581 127.25 12.2581C127.406 12.2581 127.542 12.2737 127.656 12.3049C127.781 12.3362 127.891 12.3883 127.984 12.4612C128.078 12.5341 128.167 12.6226 128.25 12.7268C128.333 12.831 128.427 12.9508 128.531 13.0862L132.281 18.2737L136.094 13.0862C136.198 12.9508 136.292 12.831 136.375 12.7268C136.458 12.6226 136.547 12.5341 136.641 12.4612C136.734 12.3883 136.839 12.3362 136.953 12.3049C137.078 12.2737 137.219 12.2581 137.375 12.2581C137.708 12.2581 137.979 12.3674 138.187 12.5862C138.406 12.8049 138.516 13.0601 138.516 13.3518C138.516 13.5393 138.469 13.7268 138.375 13.9143C138.281 14.0914 138.172 14.2685 138.047 14.4456L133.781 20.0393L138.203 25.9299C138.328 26.107 138.437 26.2841 138.531 26.4612C138.625 26.6383 138.672 26.8206 138.672 27.0081Z" fill="#DC1793"/>
<path d="M144.281 26.8831C144.281 27.081 144.245 27.2685 144.172 27.4456C144.099 27.6227 144 27.7789 143.875 27.9143C143.75 28.0393 143.604 28.1383 143.438 28.2112C143.271 28.2841 143.094 28.3206 142.906 28.3206C142.719 28.3206 142.542 28.2841 142.375 28.2112C142.208 28.1383 142.063 28.0393 141.938 27.9143C141.812 27.7789 141.714 27.6227 141.641 27.4456C141.568 27.2685 141.531 27.081 141.531 26.8831V8.10181C141.531 7.9039 141.568 7.7164 141.641 7.53931C141.714 7.36223 141.812 7.21119 141.938 7.08619C142.063 6.95077 142.208 6.8466 142.375 6.77369C142.542 6.70077 142.719 6.66431 142.906 6.66431C143.094 6.66431 143.271 6.70077 143.438 6.77369C143.604 6.8466 143.75 6.95077 143.875 7.08619C144 7.21119 144.099 7.36223 144.172 7.53931C144.245 7.7164 144.281 7.9039 144.281 8.10181V26.8831Z" fill="#DC1793"/>
<path d="M160.922 23.7893C160.922 24.5914 160.745 25.2893 160.391 25.8831C160.036 26.4768 159.552 26.9716 158.938 27.3674C158.333 27.7529 157.62 28.0393 156.797 28.2268C155.984 28.4247 155.12 28.5237 154.203 28.5237C152.974 28.5237 151.911 28.4404 151.016 28.2737C150.13 28.1174 149.453 27.9091 148.984 27.6487C148.714 27.5029 148.521 27.3414 148.406 27.1643C148.302 26.9768 148.25 26.7581 148.25 26.5081C148.25 26.1331 148.359 25.8518 148.578 25.6643C148.807 25.4768 149.083 25.3831 149.406 25.3831C149.698 25.3831 149.974 25.4247 150.234 25.5081C150.495 25.581 150.76 25.6643 151.031 25.7581C151.271 25.8414 151.646 25.9508 152.156 26.0862C152.677 26.2112 153.359 26.2737 154.203 26.2737C155.484 26.2737 156.49 26.081 157.219 25.6956C157.958 25.2997 158.328 24.6852 158.328 23.8518C158.328 23.5081 158.276 23.2112 158.172 22.9612C158.068 22.7112 157.891 22.4924 157.641 22.3049C157.401 22.1174 157.083 21.956 156.688 21.8206C156.292 21.6747 155.802 21.5393 155.219 21.4143L152.797 20.8987C152.151 20.7633 151.557 20.5914 151.016 20.3831C150.474 20.1747 150.005 19.9091 149.609 19.5862C149.214 19.2529 148.901 18.8466 148.672 18.3674C148.453 17.8779 148.344 17.2841 148.344 16.5862C148.344 15.8258 148.5 15.1643 148.812 14.6018C149.125 14.0289 149.562 13.5549 150.125 13.1799C150.688 12.7945 151.354 12.5081 152.125 12.3206C152.896 12.1331 153.74 12.0393 154.656 12.0393C155.594 12.0393 156.37 12.1018 156.984 12.2268C157.599 12.3518 158.156 12.5029 158.656 12.6799C159.167 12.857 159.547 13.0445 159.797 13.2424C160.057 13.4404 160.188 13.7216 160.188 14.0862C160.188 14.3779 160.083 14.6383 159.875 14.8674C159.677 15.0966 159.427 15.2112 159.125 15.2112C158.865 15.2112 158.589 15.1591 158.297 15.0549C158.016 14.9508 157.708 14.8414 157.375 14.7268C157.083 14.6122 156.703 14.5029 156.234 14.3987C155.766 14.2945 155.172 14.2424 154.453 14.2424C153.911 14.2424 153.417 14.2893 152.969 14.3831C152.531 14.4664 152.151 14.6018 151.828 14.7893C151.516 14.9664 151.271 15.1956 151.094 15.4768C150.927 15.7581 150.844 16.0862 150.844 16.4612C150.844 16.8049 150.906 17.0966 151.031 17.3362C151.156 17.5654 151.349 17.7685 151.609 17.9456C151.87 18.1122 152.198 18.2581 152.594 18.3831C152.99 18.4977 153.464 18.6122 154.016 18.7268L156.344 19.2112C157.073 19.3674 157.724 19.5654 158.297 19.8049C158.87 20.0445 159.349 20.3466 159.734 20.7112C160.12 21.0654 160.411 21.4977 160.609 22.0081C160.818 22.5081 160.922 23.1018 160.922 23.7893Z" fill="#DC1793"/>
<path d="M123.647 1.2854C123.659 1.53514 123.576 1.78397 123.4 2.03189C123.223 2.2694 122.931 2.48615 122.523 2.68214L117.975 4.81455C117.832 4.88367 117.668 4.94333 117.482 4.99354C117.307 5.04328 117.158 5.07101 117.033 5.07673C116.773 5.08866 116.55 5.02064 116.366 4.87266C116.192 4.7138 116.099 4.4991 116.087 4.22855C116.078 4.03084 116.117 3.86741 116.205 3.73824C116.303 3.5982 116.422 3.47281 116.563 3.36207L121.012 0.436473C121.417 0.167651 121.848 0.0227424 122.306 0.00174884C122.524 -0.00827081 122.714 0.0247639 122.873 0.100853C123.033 0.166536 123.167 0.259427 123.277 0.379524C123.397 0.499145 123.487 0.641008 123.547 0.805114C123.606 0.958815 123.64 1.11891 123.647 1.2854Z" fill="#DC1693"/>
<path d="M40.8483 78.1406C40.8483 78.4531 40.7546 78.7148 40.5671 78.9258C40.3874 79.1367 40.153 79.2422 39.864 79.2422C39.5671 79.2422 39.3288 79.1367 39.1491 78.9258C38.9694 78.7148 38.8796 78.4531 38.8796 78.1406V67.0547L35.153 75.9375C34.989 76.3438 34.8171 76.625 34.6374 76.7812C34.4577 76.9375 34.2312 77.0156 33.9577 77.0156C33.6843 77.0156 33.4577 76.9375 33.278 76.7812C33.0983 76.625 32.9226 76.3438 32.7507 75.9375L29.0358 67.0547V78.1406C29.0358 78.4531 28.9421 78.7148 28.7546 78.9258C28.5749 79.1367 28.3405 79.2422 28.0515 79.2422C27.7624 79.2422 27.5241 79.1367 27.3366 78.9258C27.1569 78.7148 27.0671 78.4531 27.0671 78.1406V64.1016C27.0671 63.9531 27.0944 63.8125 27.1491 63.6797C27.2116 63.5469 27.2976 63.4297 27.4069 63.3281C27.5241 63.2266 27.6569 63.1484 27.8054 63.0938C27.9616 63.0312 28.1335 63 28.321 63C28.6335 63 28.8952 63.082 29.1062 63.2461C29.3249 63.4102 29.5241 63.7031 29.7038 64.125L33.9812 74.3555L38.2468 64.125C38.4265 63.7031 38.6257 63.4102 38.8444 63.2461C39.0632 63.082 39.3288 63 39.6413 63C40.0163 63 40.3093 63.1094 40.5202 63.3281C40.739 63.5469 40.8483 63.8047 40.8483 64.1016V78.1406Z" fill="white" fill-opacity="0.894118"/>
<path d="M55.2272 79.2422C55.0397 79.2422 54.8874 79.2227 54.7702 79.1836C54.653 79.1445 54.5554 79.0859 54.4772 79.0078C54.3991 78.9219 54.3327 78.8203 54.278 78.7031C54.2312 78.5781 54.1804 78.4375 54.1257 78.2812L52.8015 74.3789H46.2741L44.9499 78.2578C44.8952 78.4219 44.8444 78.5664 44.7976 78.6914C44.7507 78.8164 44.6882 78.9219 44.6101 79.0078C44.5319 79.0859 44.4343 79.1445 44.3171 79.1836C44.1999 79.2227 44.0437 79.2422 43.8483 79.2422C43.5358 79.2422 43.3132 79.1523 43.1804 78.9727C43.0476 78.793 42.9812 78.5898 42.9812 78.3633C42.9812 78.2383 42.9968 78.1172 43.028 78C43.0593 77.8828 43.0944 77.7695 43.1335 77.6602L47.6452 65.0391C47.7624 64.6953 47.8757 64.3984 47.9851 64.1484C48.1022 63.8906 48.2312 63.6797 48.3718 63.5156C48.5202 63.3516 48.6921 63.2305 48.8874 63.1523C49.0827 63.0664 49.321 63.0234 49.6022 63.0234C49.8835 63.0234 50.1218 63.0664 50.3171 63.1523C50.5202 63.2305 50.696 63.3516 50.8444 63.5156C50.9929 63.6797 51.1257 63.8906 51.2429 64.1484C51.3601 64.3984 51.4772 64.6953 51.5944 65.0391L56.0593 77.6602C56.0983 77.7695 56.1335 77.8984 56.1647 78.0469C56.196 78.1953 56.2116 78.3086 56.2116 78.3867C56.2116 78.6289 56.1257 78.832 55.9538 78.9961C55.7819 79.1602 55.5397 79.2422 55.2272 79.2422ZM49.5554 64.6758L46.8718 72.6211H52.2272L49.5554 64.6758Z" fill="white" fill-opacity="0.894118"/>
<path d="M60.4187 78.1641C60.4187 78.3125 60.3913 78.4531 60.3366 78.5859C60.2819 78.7188 60.2077 78.8359 60.114 78.9375C60.0202 79.0312 59.9108 79.1055 59.7858 79.1602C59.6608 79.2148 59.528 79.2422 59.3874 79.2422C59.2468 79.2422 59.114 79.2148 58.989 79.1602C58.864 79.1055 58.7546 79.0312 58.6608 78.9375C58.5671 78.8359 58.4929 78.7188 58.4382 78.5859C58.3835 78.4531 58.3562 78.3125 58.3562 78.1641V64.0781C58.3562 63.9297 58.3835 63.7891 58.4382 63.6562C58.4929 63.5234 58.5671 63.4102 58.6608 63.3164C58.7546 63.2148 58.864 63.1367 58.989 63.082C59.114 63.0273 59.2468 63 59.3874 63C59.528 63 59.6608 63.0273 59.7858 63.082C59.9108 63.1367 60.0202 63.2148 60.114 63.3164C60.2077 63.4102 60.2819 63.5234 60.3366 63.6562C60.3913 63.7891 60.4187 63.9297 60.4187 64.0781V78.1641Z" fill="white" fill-opacity="0.894118"/>
<path d="M14.8555 105.078H6.45312C6.02344 105.078 5.67188 104.957 5.39844 104.715C5.13281 104.473 5 104.129 5 103.684C5 103.371 5.05859 103.082 5.17578 102.816C5.30078 102.551 5.49609 102.297 5.76172 102.055L11.0703 97.1562C11.4453 96.8047 11.7617 96.4766 12.0195 96.1719C12.2773 95.8594 12.4844 95.5625 12.6406 95.2812C12.8047 94.9922 12.918 94.707 12.9805 94.4258C13.0508 94.1445 13.0859 93.8555 13.0859 93.5586C13.0859 93.1445 13.0078 92.7773 12.8516 92.457C12.7031 92.1289 12.4922 91.8555 12.2188 91.6367C11.9453 91.4102 11.6094 91.2383 11.2109 91.1211C10.8203 91.0039 10.3867 90.9453 9.91016 90.9453C9.65234 90.9453 9.39844 90.9688 9.14844 91.0156C8.90625 91.0547 8.67578 91.1055 8.45703 91.168C8.23828 91.2227 8.04297 91.2852 7.87109 91.3555C7.69922 91.418 7.55469 91.4727 7.4375 91.5195C7.32031 91.5664 7.1875 91.6289 7.03906 91.707C6.89844 91.7773 6.75781 91.8477 6.61719 91.918C6.47656 91.9805 6.34375 92.0391 6.21875 92.0938C6.10156 92.1406 6.00391 92.1641 5.92578 92.1641C5.83984 92.1641 5.75 92.1484 5.65625 92.1172C5.57031 92.0859 5.48828 92.0352 5.41016 91.9648C5.33984 91.8945 5.28125 91.8086 5.23438 91.707C5.1875 91.5977 5.16406 91.4688 5.16406 91.3203C5.16406 91.0703 5.25391 90.8516 5.43359 90.6641C5.62109 90.4766 5.90625 90.2734 6.28906 90.0547C6.77344 89.7891 7.34766 89.5742 8.01172 89.4102C8.67578 89.2461 9.35938 89.1641 10.0625 89.1641C10.7578 89.1641 11.3555 89.2305 11.8555 89.3633C12.3633 89.4961 12.8359 89.6953 13.2734 89.9609C13.8359 90.3125 14.293 90.8008 14.6445 91.4258C14.9961 92.0508 15.1719 92.7852 15.1719 93.6289C15.1719 94.1133 15.0938 94.5742 14.9375 95.0117C14.7891 95.4414 14.5938 95.8477 14.3516 96.2305C14.1172 96.6133 13.8477 96.9727 13.543 97.3086C13.2383 97.6367 12.9336 97.9375 12.6289 98.2109L7.08594 103.25H14.8555C15.082 103.25 15.2812 103.34 15.4531 103.52C15.6328 103.699 15.7227 103.914 15.7227 104.164C15.7227 104.414 15.6367 104.629 15.4648 104.809C15.3008 104.988 15.0977 105.078 14.8555 105.078Z" fill="white" fill-opacity="0.894118"/>
<path d="M24.0781 105.242C23.7891 105.242 23.5469 105.137 23.3516 104.926C23.1641 104.715 23.0703 104.453 23.0703 104.141V91.6367L20.2344 92.8906C20.0938 92.9531 19.9336 93.0117 19.7539 93.0664C19.582 93.1211 19.4492 93.1484 19.3555 93.1484C19.2695 93.1484 19.1797 93.1289 19.0859 93.0898C19 93.0508 18.918 92.9922 18.8398 92.9141C18.7617 92.8359 18.6992 92.7383 18.6523 92.6211C18.6055 92.5039 18.582 92.3672 18.582 92.2109C18.582 91.9609 18.6523 91.7656 18.793 91.625C18.9336 91.4766 19.168 91.3281 19.4961 91.1797L23.1875 89.5039C23.6562 89.2773 24.0508 89.1641 24.3711 89.1641C24.6367 89.1641 24.8242 89.2383 24.9336 89.3867C25.0508 89.5352 25.1094 89.7578 25.1094 90.0547V104.141C25.1094 104.453 25.0078 104.715 24.8047 104.926C24.6094 105.137 24.3672 105.242 24.0781 105.242Z" fill="white" fill-opacity="0.894118"/>
<path d="M37.0391 96.4414C37.0391 96.8398 36.9609 97.2188 36.8047 97.5781C36.6562 97.9297 36.4492 98.2383 36.1836 98.5039C35.918 98.7695 35.6055 98.9805 35.2461 99.1367C34.8945 99.293 34.5156 99.3711 34.1094 99.3711C33.7109 99.3711 33.332 99.293 32.9727 99.1367C32.6211 98.9805 32.3125 98.7695 32.0469 98.5039C31.7812 98.2383 31.5703 97.9297 31.4141 97.5781C31.2656 97.2188 31.1914 96.8398 31.1914 96.4414C31.1914 96.043 31.2656 95.668 31.4141 95.3164C31.5703 94.957 31.7812 94.6445 32.0469 94.3789C32.3125 94.1133 32.6211 93.9023 32.9727 93.7461C33.332 93.5898 33.7109 93.5117 34.1094 93.5117C34.5156 93.5117 34.8945 93.5898 35.2461 93.7461C35.6055 93.9023 35.918 94.1133 36.1836 94.3789C36.4492 94.6445 36.6562 94.957 36.8047 95.3164C36.9609 95.668 37.0391 96.043 37.0391 96.4414Z" fill="white" fill-opacity="0.894118"/>
<path d="M49.0039 105.078H40.6016C40.1719 105.078 39.8203 104.957 39.5469 104.715C39.2812 104.473 39.1484 104.129 39.1484 103.684C39.1484 103.371 39.207 103.082 39.3242 102.816C39.4492 102.551 39.6445 102.297 39.9102 102.055L45.2188 97.1562C45.5938 96.8047 45.9102 96.4766 46.168 96.1719C46.4258 95.8594 46.6328 95.5625 46.7891 95.2812C46.9531 94.9922 47.0664 94.707 47.1289 94.4258C47.1992 94.1445 47.2344 93.8555 47.2344 93.5586C47.2344 93.1445 47.1562 92.7773 47 92.457C46.8516 92.1289 46.6406 91.8555 46.3672 91.6367C46.0938 91.4102 45.7578 91.2383 45.3594 91.1211C44.9688 91.0039 44.5352 90.9453 44.0586 90.9453C43.8008 90.9453 43.5469 90.9688 43.2969 91.0156C43.0547 91.0547 42.8242 91.1055 42.6055 91.168C42.3867 91.2227 42.1914 91.2852 42.0195 91.3555C41.8477 91.418 41.7031 91.4727 41.5859 91.5195C41.4688 91.5664 41.3359 91.6289 41.1875 91.707C41.0469 91.7773 40.9062 91.8477 40.7656 91.918C40.625 91.9805 40.4922 92.0391 40.3672 92.0938C40.25 92.1406 40.1523 92.1641 40.0742 92.1641C39.9883 92.1641 39.8984 92.1484 39.8047 92.1172C39.7188 92.0859 39.6367 92.0352 39.5586 91.9648C39.4883 91.8945 39.4297 91.8086 39.3828 91.707C39.3359 91.5977 39.3125 91.4688 39.3125 91.3203C39.3125 91.0703 39.4023 90.8516 39.582 90.6641C39.7695 90.4766 40.0547 90.2734 40.4375 90.0547C40.9219 89.7891 41.4961 89.5742 42.1602 89.4102C42.8242 89.2461 43.5078 89.1641 44.2109 89.1641C44.9062 89.1641 45.5039 89.2305 46.0039 89.3633C46.5117 89.4961 46.9844 89.6953 47.4219 89.9609C47.9844 90.3125 48.4414 90.8008 48.793 91.4258C49.1445 92.0508 49.3203 92.7852 49.3203 93.6289C49.3203 94.1133 49.2422 94.5742 49.0859 95.0117C48.9375 95.4414 48.7422 95.8477 48.5 96.2305C48.2656 96.6133 47.9961 96.9727 47.6914 97.3086C47.3867 97.6367 47.082 97.9375 46.7773 98.2109L41.2344 103.25H49.0039C49.2305 103.25 49.4297 103.34 49.6016 103.52C49.7812 103.699 49.8711 103.914 49.8711 104.164C49.8711 104.414 49.7852 104.629 49.6133 104.809C49.4492 104.988 49.2461 105.078 49.0039 105.078Z" fill="white" fill-opacity="0.894118"/>
<path d="M60.3828 104.504C59.4609 105.098 58.293 105.395 56.8789 105.395C56.2305 105.395 55.5781 105.344 54.9219 105.242C54.2656 105.148 53.6562 104.988 53.0938 104.762C52.7656 104.629 52.5273 104.484 52.3789 104.328C52.2305 104.172 52.1562 103.98 52.1562 103.754C52.1562 103.457 52.2344 103.234 52.3906 103.086C52.5547 102.93 52.7305 102.852 52.918 102.852C53.0508 102.852 53.2031 102.867 53.375 102.898C53.5469 102.93 53.7812 103 54.0781 103.109C54.4609 103.242 54.9023 103.363 55.4023 103.473C55.9102 103.582 56.4102 103.637 56.9023 103.637C57.4023 103.637 57.8672 103.57 58.2969 103.438C58.7266 103.305 59.0977 103.102 59.4102 102.828C59.7305 102.555 59.9805 102.203 60.1602 101.773C60.3398 101.344 60.4297 100.836 60.4297 100.25C60.4297 99.6641 60.332 99.1719 60.1367 98.7734C59.9414 98.3672 59.6758 98.0391 59.3398 97.7891C59.0039 97.5391 58.6172 97.3594 58.1797 97.25C57.7422 97.1406 57.2852 97.0859 56.8086 97.0859C56.5977 97.0859 56.3594 97.0938 56.0938 97.1094C55.8359 97.125 55.582 97.1445 55.332 97.168C55.0898 97.1914 54.8672 97.2109 54.6641 97.2266C54.4688 97.2422 54.3281 97.25 54.2422 97.25C54.1406 97.25 54.0391 97.2344 53.9375 97.2031C53.8359 97.1719 53.7461 97.125 53.668 97.0625C53.5898 96.9922 53.5234 96.9062 53.4688 96.8047C53.4219 96.6953 53.3984 96.5664 53.3984 96.418C53.3984 96.1758 53.457 95.9688 53.5742 95.7969C53.6992 95.625 53.8828 95.4531 54.125 95.2812L59.6211 91.2266H53.1406C52.8984 91.2266 52.6914 91.1445 52.5195 90.9805C52.3555 90.8086 52.2734 90.5977 52.2734 90.3477C52.2734 90.2305 52.2969 90.1211 52.3438 90.0195C52.3906 89.9102 52.4531 89.8164 52.5312 89.7383C52.6172 89.6602 52.7109 89.5977 52.8125 89.5508C52.9141 89.5039 53.0234 89.4805 53.1406 89.4805H60.2891C60.7812 89.4805 61.1523 89.6016 61.4023 89.8438C61.6523 90.0781 61.7773 90.3633 61.7773 90.6992C61.7773 91.0508 61.6875 91.3477 61.5078 91.5898C61.3281 91.8242 61.0586 92.0742 60.6992 92.3398L56.2578 95.5977C56.4297 95.5586 56.5977 95.5352 56.7617 95.5273C56.9258 95.5117 57.0859 95.5039 57.2422 95.5039C58.0859 95.5039 58.832 95.6055 59.4805 95.8086C60.1367 96.0039 60.6875 96.2969 61.1328 96.6875C61.5781 97.0781 61.918 97.5625 62.1523 98.1406C62.3867 98.7109 62.5039 99.3672 62.5039 100.109C62.5039 100.648 62.4492 101.145 62.3398 101.598C62.2383 102.043 62.0938 102.449 61.9062 102.816C61.7188 103.176 61.4922 103.496 61.2266 103.777C60.9688 104.059 60.6875 104.301 60.3828 104.504Z" fill="white" fill-opacity="0.894118"/>
<path d="M16.2812 126.707C16.2812 127.379 16.1602 128.004 15.918 128.582C15.6758 129.152 15.3281 129.648 14.875 130.07C14.4297 130.484 13.8867 130.809 13.2461 131.043C12.6133 131.277 11.9062 131.395 11.125 131.395C10.7969 131.395 10.4609 131.379 10.1172 131.348C9.77344 131.316 9.44141 131.27 9.12109 131.207C8.80078 131.152 8.49219 131.09 8.19531 131.02C7.90625 130.941 7.64844 130.855 7.42188 130.762C7.16406 130.66 6.94922 130.566 6.77734 130.48C6.60547 130.387 6.46875 130.293 6.36719 130.199C6.26562 130.098 6.19141 129.992 6.14453 129.883C6.10547 129.773 6.08594 129.652 6.08594 129.52C6.08594 129.223 6.17188 128.984 6.34375 128.805C6.51562 128.625 6.74219 128.535 7.02344 128.535C7.15625 128.535 7.28906 128.555 7.42188 128.594C7.5625 128.633 7.69922 128.68 7.83203 128.734C7.97266 128.789 8.10547 128.848 8.23047 128.91C8.35547 128.973 8.47266 129.023 8.58203 129.062C8.69922 129.102 8.84375 129.148 9.01562 129.203C9.1875 129.258 9.375 129.312 9.57812 129.367C9.78906 129.414 10.0078 129.457 10.2344 129.496C10.4609 129.527 10.6836 129.543 10.9023 129.543C11.3789 129.543 11.8203 129.484 12.2266 129.367C12.6406 129.25 12.9961 129.078 13.293 128.852C13.5898 128.617 13.8203 128.328 13.9844 127.984C14.1562 127.641 14.2422 127.238 14.2422 126.777C14.2422 126.074 14.0547 125.508 13.6797 125.078C13.3125 124.641 12.8125 124.32 12.1797 124.117L9.68359 123.297C9.19922 123.133 8.75391 122.938 8.34766 122.711C7.94141 122.477 7.58984 122.195 7.29297 121.867C7.00391 121.531 6.77734 121.141 6.61328 120.695C6.44922 120.25 6.36719 119.734 6.36719 119.148C6.36719 118.398 6.50391 117.758 6.77734 117.227C7.05078 116.695 7.44141 116.242 7.94922 115.867C8.44141 115.5 8.99219 115.242 9.60156 115.094C10.2188 114.938 10.918 114.859 11.6992 114.859C11.9883 114.859 12.2734 114.875 12.5547 114.906C12.8359 114.938 13.1016 114.977 13.3516 115.023C13.6016 115.07 13.8281 115.125 14.0312 115.188C14.2422 115.242 14.418 115.301 14.5586 115.363C15.0586 115.574 15.4062 115.773 15.6016 115.961C15.7969 116.148 15.8945 116.363 15.8945 116.605C15.8945 116.895 15.8086 117.113 15.6367 117.262C15.4648 117.402 15.2656 117.473 15.0391 117.473C14.9453 117.473 14.8398 117.457 14.7227 117.426C14.6133 117.395 14.5 117.359 14.3828 117.32C14.2656 117.281 14.1523 117.238 14.043 117.191C13.9336 117.145 13.832 117.102 13.7383 117.062C13.418 116.938 13.082 116.836 12.7305 116.758C12.3789 116.672 11.9531 116.629 11.4531 116.629C11.0234 116.629 10.6211 116.672 10.2461 116.758C9.87891 116.836 9.54688 116.977 9.25 117.18C8.65625 117.586 8.35938 118.25 8.35938 119.172C8.35938 119.5 8.41797 119.789 8.53516 120.039C8.65234 120.281 8.80859 120.492 9.00391 120.672C9.19922 120.852 9.42188 121.004 9.67188 121.129C9.92969 121.254 10.1953 121.363 10.4688 121.457L12.9883 122.266C13.4883 122.43 13.9375 122.641 14.3359 122.898C14.7422 123.148 15.0898 123.453 15.3789 123.812C15.668 124.172 15.8906 124.594 16.0469 125.078C16.2031 125.555 16.2812 126.098 16.2812 126.707Z" fill="white" fill-opacity="0.894118"/>
<path d="M28.832 119.852C28.832 120.508 28.7148 121.121 28.4805 121.691C28.2461 122.254 27.9102 122.746 27.4727 123.168C27.043 123.582 26.5195 123.91 25.9023 124.152C25.2852 124.387 24.5898 124.504 23.8164 124.504H21.3438V130.141C21.3438 130.453 21.2461 130.715 21.0508 130.926C20.8633 131.137 20.625 131.242 20.3359 131.242C20.0469 131.242 19.8086 131.137 19.6211 130.926C19.4414 130.715 19.3516 130.453 19.3516 130.141V116.418C19.3516 116.199 19.3828 116.012 19.4453 115.855C19.5156 115.691 19.5898 115.574 19.668 115.504C19.7383 115.434 19.8516 115.359 20.0078 115.281C20.1641 115.203 20.3438 115.164 20.5469 115.164H24.1328C24.8906 115.164 25.5586 115.281 26.1367 115.516C26.7227 115.742 27.2148 116.062 27.6133 116.477C28.0117 116.891 28.3125 117.387 28.5156 117.965C28.7266 118.535 28.832 119.164 28.832 119.852ZM26.7461 119.852C26.7461 119.414 26.6836 119.012 26.5586 118.645C26.4414 118.277 26.2656 117.961 26.0312 117.695C25.7969 117.43 25.5117 117.223 25.1758 117.074C24.8477 116.926 24.4727 116.852 24.0508 116.852H21.3438V122.816H23.9805C24.418 122.816 24.8086 122.738 25.1523 122.582C25.4961 122.426 25.7852 122.215 26.0195 121.949C26.2539 121.676 26.4336 121.359 26.5586 121C26.6836 120.641 26.7461 120.258 26.7461 119.852Z" fill="white" fill-opacity="0.894118"/>
<path d="M35.0547 116.242L31.3867 130.504C31.3008 130.84 31.1797 131.086 31.0234 131.242C30.8672 131.406 30.6172 131.488 30.2734 131.488C30.0078 131.488 29.8047 131.41 29.6641 131.254C29.5312 131.105 29.4648 130.941 29.4648 130.762C29.4648 130.629 29.4727 130.5 29.4883 130.375C29.5117 130.242 29.543 130.117 29.582 130L33.25 115.738C33.3359 115.402 33.457 115.156 33.6133 115C33.7695 114.836 34.0195 114.754 34.3633 114.754C34.6289 114.754 34.8281 114.832 34.9609 114.988C35.1016 115.137 35.1719 115.301 35.1719 115.48C35.1719 115.613 35.1602 115.746 35.1367 115.879C35.1211 116.004 35.0938 116.125 35.0547 116.242Z" fill="white" fill-opacity="0.894118"/>
<path d="M43.6094 131.078H38.7578C38.5547 131.078 38.375 131.043 38.2188 130.973C38.0625 130.895 37.9492 130.816 37.8789 130.738C37.8164 130.668 37.75 130.559 37.6797 130.41C37.6172 130.254 37.5859 130.07 37.5859 129.859V116.395C37.5859 116.176 37.6172 115.992 37.6797 115.844C37.75 115.688 37.8164 115.574 37.8789 115.504C37.9492 115.434 38.0625 115.359 38.2188 115.281C38.375 115.203 38.5547 115.164 38.7578 115.164H43.6328C44.2812 115.164 44.8711 115.254 45.4023 115.434C45.9414 115.605 46.3984 115.855 46.7734 116.184C47.1562 116.504 47.4531 116.895 47.6641 117.355C47.875 117.816 47.9805 118.336 47.9805 118.914C47.9805 119.445 47.9219 119.91 47.8047 120.309C47.6953 120.699 47.5391 121.043 47.3359 121.34C47.1406 121.629 46.9062 121.875 46.6328 122.078C46.3594 122.273 46.0625 122.434 45.7422 122.559C46.1172 122.652 46.4766 122.801 46.8203 123.004C47.1641 123.199 47.4648 123.453 47.7227 123.766C47.9883 124.078 48.1992 124.457 48.3555 124.902C48.5195 125.348 48.6016 125.863 48.6016 126.449C48.6016 127.082 48.5 127.68 48.2969 128.242C48.0938 128.797 47.7852 129.285 47.3711 129.707C46.957 130.129 46.4375 130.465 45.8125 130.715C45.1875 130.957 44.4531 131.078 43.6094 131.078ZM43.3516 116.852H39.5781V121.762H43.3281C43.7656 121.762 44.1484 121.699 44.4766 121.574C44.8047 121.441 45.0781 121.262 45.2969 121.035C45.5234 120.801 45.6914 120.531 45.8008 120.227C45.9102 119.914 45.9648 119.578 45.9648 119.219C45.9648 117.641 45.0938 116.852 43.3516 116.852ZM43.3516 123.449H39.5781V129.402H43.375C43.8984 129.402 44.3555 129.324 44.7461 129.168C45.1367 129.012 45.4609 128.801 45.7188 128.535C45.9766 128.262 46.168 127.945 46.293 127.586C46.4258 127.219 46.4922 126.824 46.4922 126.402C46.4922 125.949 46.418 125.543 46.2695 125.184C46.1289 124.816 45.9219 124.504 45.6484 124.246C45.375 123.988 45.043 123.793 44.6523 123.66C44.2695 123.52 43.8359 123.449 43.3516 123.449Z" fill="white" fill-opacity="0.894118"/>
<path d="M61.4688 130.258C61.4688 130.375 61.4414 130.492 61.3867 130.609C61.3398 130.727 61.2695 130.832 61.1758 130.926C61.0898 131.02 60.9844 131.094 60.8594 131.148C60.7344 131.211 60.6016 131.242 60.4609 131.242C60.3281 131.242 60.1992 131.215 60.0742 131.16C59.9492 131.105 59.8359 131.035 59.7344 130.949C59.6328 130.863 59.5508 130.762 59.4883 130.645C59.4336 130.527 59.4062 130.406 59.4062 130.281V127.891C59.4062 126.547 59.0859 125.527 58.4453 124.832C57.8047 124.129 56.875 123.777 55.6562 123.777H53.6172V130.141C53.6172 130.453 53.5195 130.715 53.3242 130.926C53.1367 131.137 52.8984 131.242 52.6094 131.242C52.3203 131.242 52.082 131.137 51.8945 130.926C51.7148 130.715 51.625 130.453 51.625 130.141V116.418C51.625 116.199 51.6562 116.012 51.7188 115.855C51.7891 115.691 51.8633 115.574 51.9414 115.504C52.0117 115.434 52.125 115.359 52.2812 115.281C52.4375 115.203 52.6172 115.164 52.8203 115.164H56.5703C57.3281 115.164 57.9883 115.266 58.5508 115.469C59.1133 115.672 59.5781 115.961 59.9453 116.336C60.3125 116.703 60.5859 117.145 60.7656 117.66C60.9453 118.168 61.0352 118.73 61.0352 119.348C61.0352 120.191 60.8555 120.906 60.4961 121.492C60.1367 122.07 59.5391 122.555 58.7031 122.945C59.1797 123.148 59.5938 123.379 59.9453 123.637C60.2969 123.887 60.582 124.191 60.8008 124.551C61.0273 124.91 61.1953 125.34 61.3047 125.84C61.4141 126.332 61.4688 126.918 61.4688 127.598V130.258ZM58.9492 119.371C58.9492 118.965 58.8867 118.605 58.7617 118.293C58.6445 117.98 58.4766 117.719 58.2578 117.508C58.0391 117.289 57.7773 117.125 57.4727 117.016C57.168 116.906 56.8281 116.852 56.4531 116.852H53.6172V122.102H56.4531C56.8281 122.102 57.168 122.039 57.4727 121.914C57.7852 121.789 58.0508 121.609 58.2695 121.375C58.4883 121.141 58.6562 120.855 58.7734 120.52C58.8906 120.176 58.9492 119.793 58.9492 119.371Z" fill="white" fill-opacity="0.894118"/>
</svg>
