<svg id="Layer_1" data-name="Layer 1" xmlns="http://www.w3.org/2000/svg" viewBox="0 0 300 87.04"><defs><style>.cls-1{fill:#4ff39d;}.cls-2{fill:#fff;}</style></defs><path class="cls-1" d="M366,135.59c-5.23,0-7.91-3.85-7.91-11.63,0-6,3.48-10.24,8-10.24,4.72,0,8.06,4.43,8.06,10.83,0,7.33-2.62,11-8.14,11Zm-7.55,24V138.06a12.32,12.32,0,0,0,10.6,5.59c9.23,0,14.68-7.63,14.68-18.45,0-12.06-6.47-19.18-15.47-19.18-4.36,0-7.7,1.67-10,5.31l-.07-4.36h-9.08v52.66Z" transform="translate(-349.18 -72.59)"/><path class="cls-1" d="M408.82,129.12c-.07,4.22-3.71,7.77-8.57,7.77-3,0-4.58-1.3-4.58-4,0-3.05,1.74-4.58,7.12-5.59,3.49-.66,5.16-1.17,6.1-2.11l-.07,3.92Zm9.51,13.59V120.12c0-9-3.92-14.1-15.25-14.1s-15.55,5.16-15.69,12.57h8.79c.43-3.2,2.18-5.3,6.46-5.3,3.71,0,6,1.38,6,3.7,0,2.47-1.3,3.42-6,4.07-9.51,1.31-16.41,2.47-16.41,12.78,0,5.82,3.77,9.81,11.91,9.81,4.79,0,8.57-1.67,10.82-4.14a14.47,14.47,0,0,0,.58,3.2Z" transform="translate(-349.18 -72.59)"/><path class="cls-1" d="M432.14,142.71V107h-9.45v35.74Zm0-40V93.89h-9.45v8.79Z" transform="translate(-349.18 -72.59)"/><path class="cls-1" d="M467,117.79c-.51-7.7-5.16-11.77-15.47-11.77-10.9,0-15,4.58-15,10.61a8.88,8.88,0,0,0,4.51,8.06c2.54,1.6,5.88,2.62,11.91,4.07,3,.73,5.74,1.52,5.74,4.07s-3,3.7-6.32,3.7c-4.58,0-7.41-2-7.41-5.3h-9.73c.14,7.26,6.24,12.42,17.21,12.42,10.17,0,15.62-4.43,15.62-11.84,0-4.65-2.11-7.12-5.88-8.64-2.76-1.09-6.61-1.89-10.68-3-3.85-1.09-5.81-2-5.81-4.07s2-3,5.59-3c4.29,0,6.17,1.23,6.68,4.72Z" transform="translate(-349.18 -72.59)"/><path class="cls-1" d="M492.35,129.12c-.07,4.22-3.7,7.77-8.57,7.77-3,0-4.57-1.3-4.57-4,0-3.05,1.74-4.58,7.11-5.59,3.49-.66,5.16-1.17,6.11-2.11l-.08,3.92Zm9.52,13.59V120.12c0-9-3.92-14.1-15.26-14.1s-15.54,5.16-15.69,12.57h8.79c.44-3.2,2.18-5.3,6.47-5.3,3.7,0,6,1.38,6,3.7,0,2.47-1.31,3.42-6,4.07-9.52,1.31-16.42,2.47-16.42,12.78,0,5.82,3.78,9.81,11.92,9.81,4.79,0,8.57-1.67,10.82-4.14a13.91,13.91,0,0,0,.58,3.2Z" transform="translate(-349.18 -72.59)"/><path class="cls-1" d="M523.15,135.59c-4.65,0-8.06-4.07-8.06-10.46,0-7.34,2.76-10.9,8.06-10.9s8.07,3.71,8.07,11.48c0,6-3.49,9.88-8.07,9.88Zm7.77,8.21c0,4.72-4,7.7-9,7.7-4.72,0-7.85-2.55-7.85-6.83h-8.79c0,9.22,7.34,15,17.29,15s17.8-5.81,17.8-16.56V107h-9.45v4.43c-2.25-3.63-5.52-5.38-10-5.38-8.64,0-15.62,7.48-15.62,18.6,0,9.37,4.07,18.38,15.84,18.38,4.65,0,8.5-1.89,9.8-5.09v5.89Z" transform="translate(-349.18 -72.59)"/><path class="cls-1" d="M553.44,121.35c.37-4.94,3.49-7.85,7.27-7.85s7.19,2.55,7.33,7.85Zm24.34,6C577.78,113.14,572,106,561,106s-17.29,7.12-17.29,18.16c0,12.93,6,19.47,17.87,19.47,7.63,0,13.51-4.14,15.69-11.48h-9.74c-.65,2.47-3.34,4-6.39,4-4.65,0-7.7-3.49-8-8.86Z" transform="translate(-349.18 -72.59)"/><path class="cls-1" d="M613.44,142.71V117.94c0-7.78-5-11.92-11.84-11.92-5.74,0-9.37,2.18-11.55,6.18V107h-9v35.74h9.44V122.22c0-5.45,2.4-8.21,7.34-8.21,4.5,0,6.1,1.53,6.1,7v21.65Z" transform="translate(-349.18 -72.59)"/><path class="cls-1" d="M648.16,117.79c-.5-7.7-5.15-11.77-15.47-11.77-10.89,0-15,4.58-15,10.61a8.87,8.87,0,0,0,4.5,8.06c2.54,1.6,5.88,2.62,11.91,4.07,3,.73,5.74,1.52,5.74,4.07s-3,3.7-6.32,3.7c-4.58,0-7.41-2-7.41-5.3h-9.73c.14,7.26,6.25,12.42,17.21,12.42,10.17,0,15.62-4.43,15.62-11.84,0-4.65-2.11-7.12-5.88-8.64-2.76-1.09-6.61-1.89-10.68-3-3.85-1.09-5.81-2-5.81-4.07s2-3,5.59-3c4.29,0,6.18,1.23,6.68,4.72Z" transform="translate(-349.18 -72.59)"/><polygon class="cls-2" points="111 29.41 102.01 15.97 110.73 3.07 102.65 3.07 98.15 10.73 93.71 3.07 85.31 3.07 93.87 15.97 85.04 29.41 93.39 29.41 97.89 21.48 102.49 29.41 111 29.41 111 29.41"/><path class="cls-2" d="M464.73,86.26c.27-3.64,2.57-5.78,5.35-5.78s5.3,1.87,5.41,5.78Zm17.93,4.38c0-10.43-4.28-15.68-12.36-15.68s-12.74,5.25-12.74,13.38c0,9.53,4.39,14.35,13.16,14.35,5.62,0,10-3,11.56-8.46h-7.17c-.48,1.82-2.46,2.94-4.71,2.94-3.42,0-5.67-2.56-5.88-6.53Z" transform="translate(-349.18 -72.59)"/><path class="cls-2" d="M508.94,102V83.74c0-5.73-3.69-8.78-8.72-8.78-4.23,0-6.91,1.61-8.51,4.55V75.66h-6.64V102h7V86.9c0-4,1.76-6.05,5.4-6.05,3.32,0,4.5,1.12,4.5,5.19V102Z" transform="translate(-349.18 -72.59)"/><path class="cls-2" d="M524.94,96.85c-4.23,0-6.37-2.67-6.37-8s2.14-8,6.37-8,6.37,2.62,6.37,8-2.14,8-6.37,8Zm0,5.84c8.19,0,13.38-5.52,13.38-13.86S533.19,75,524.94,75,511.4,80.48,511.4,88.83c0,8.18,5,13.86,13.54,13.86Z" transform="translate(-349.18 -72.59)"/><path class="cls-2" d="M549.58,82.2a2,2,0,0,1-2,1.84c-.71,0-1.09-.31-1.09-.94s.42-1.09,1.69-1.33a2.75,2.75,0,0,0,1.45-.5l0,.93Zm2.25,3.22V80.07c0-2.13-.93-3.34-3.61-3.34s-3.68,1.22-3.72,3h2.08a1.35,1.35,0,0,1,1.54-1.26c.87,0,1.42.33,1.42.88s-.31.81-1.42,1c-2.26.31-3.89.59-3.89,3,0,1.38.89,2.32,2.82,2.32a3.39,3.39,0,0,0,2.56-1,3.42,3.42,0,0,0,.14.76Z" transform="translate(-349.18 -72.59)"/><path class="cls-2" d="M555.05,85.42V81a1.81,1.81,0,0,1,2.05-2,4.44,4.44,0,0,1,.62,0V76.73h-.3A2.59,2.59,0,0,0,554.91,78V77h-2.1v8.46Z" transform="translate(-349.18 -72.59)"/><path class="cls-2" d="M563.13,82.05c0,1-.41,1.65-1.3,1.65s-1.29-.62-1.29-1.69V78.54h4.68V77h-4.68V74.67h-2.21v7.57a3.45,3.45,0,0,0,6.89,0V79.85h-2.09v2.2Z" transform="translate(-349.18 -72.59)"/><path class="cls-2" d="M568.24,80.36A1.8,1.8,0,0,1,570,78.5a1.73,1.73,0,0,1,1.74,1.86ZM574,81.77c0-3.35-1.38-5-4-5s-4.09,1.69-4.09,4.3q0,4.6,4.23,4.61a3.68,3.68,0,0,0,3.72-2.71h-2.31a1.47,1.47,0,0,1-1.51.94,1.93,1.93,0,0,1-1.89-2.1Z" transform="translate(-349.18 -72.59)"/><path class="cls-2" d="M574.32,88.1c1.79-.37,2.37-1.3,2.37-3.25V83.1h-2.37v2.32h1.32a1.63,1.63,0,0,1-1.32,1.82v.86Z" transform="translate(-349.18 -72.59)"/><path class="cls-2" d="M587.1,82.36a1.53,1.53,0,0,1-1.65,1.41c-.88,0-1.65-.9-1.65-2.74s.77-2.44,1.72-2.44a1.54,1.54,0,0,1,1.6,1.39h2.25c-.14-2-1.63-3.25-3.84-3.25-2.37,0-3.95,1.33-3.95,4.36s1.58,4.55,3.89,4.55a3.73,3.73,0,0,0,3.88-3.28Z" transform="translate(-349.18 -72.59)"/><path class="cls-2" d="M592.3,85.42V77h-2.24v8.46Zm0-9.48V73.86h-2.24v2.08Z" transform="translate(-349.18 -72.59)"/><path class="cls-2" d="M595.43,80.36a1.79,1.79,0,0,1,1.72-1.86,1.73,1.73,0,0,1,1.73,1.86Zm5.76,1.41c0-3.35-1.38-5-4-5s-4.1,1.69-4.1,4.3q0,4.6,4.23,4.61a3.68,3.68,0,0,0,3.72-2.71h-2.31a1.47,1.47,0,0,1-1.51.94c-1.1,0-1.82-.82-1.89-2.1Zm-1.65-6,.79-.88-2.2-2.3H596.3l-2.2,2.3.79.88,2.33-2,2.32,2Z" transform="translate(-349.18 -72.59)"/><path class="cls-2" d="M609.64,85.42V79.55a2.62,2.62,0,0,0-2.81-2.82,2.82,2.82,0,0,0-2.73,1.46V77H602v8.46h2.24V80.57c0-1.29.57-1.94,1.74-1.94s1.44.36,1.44,1.66v5.13Z" transform="translate(-349.18 -72.59)"/><path class="cls-2" d="M616,82.36a1.54,1.54,0,0,1-1.66,1.41c-.87,0-1.65-.9-1.65-2.74s.78-2.44,1.72-2.44A1.53,1.53,0,0,1,616,80h2.26c-.14-2-1.64-3.25-3.84-3.25-2.37,0-4,1.33-4,4.36s1.59,4.55,3.89,4.55a3.74,3.74,0,0,0,3.89-3.28Z" transform="translate(-349.18 -72.59)"/><path class="cls-2" d="M621.18,85.42V77h-2.24v8.46Zm0-9.48V73.86h-2.24v2.08Z" transform="translate(-349.18 -72.59)"/><path class="cls-2" d="M627.32,82.2a1.93,1.93,0,0,1-2,1.84c-.7,0-1.08-.31-1.08-.94s.41-1.09,1.69-1.33a2.7,2.7,0,0,0,1.44-.5l0,.93Zm2.26,3.22V80.07c0-2.13-.93-3.34-3.62-3.34s-3.68,1.22-3.71,3h2.08a1.34,1.34,0,0,1,1.53-1.26c.88,0,1.43.33,1.43.88s-.31.81-1.43,1c-2.25.31-3.89.59-3.89,3,0,1.38.9,2.32,2.82,2.32a3.41,3.41,0,0,0,2.57-1,2.93,2.93,0,0,0,.14.76Z" transform="translate(-349.18 -72.59)"/><path class="cls-2" d="M546.57,94.13a1.79,1.79,0,0,1,1.72-1.86A1.73,1.73,0,0,1,550,94.13Zm5.76,1.41c0-3.36-1.38-5-4-5s-4.1,1.68-4.1,4.3c0,3.06,1.41,4.61,4.23,4.61a3.67,3.67,0,0,0,3.72-2.72H549.9a1.48,1.48,0,0,1-1.51,1c-1.1,0-1.82-.83-1.89-2.1Z" transform="translate(-349.18 -72.59)"/><path class="cls-2" d="M562.05,95.81c0,1-.41,1.65-1.31,1.65s-1.29-.62-1.29-1.68V92.3h4.68V90.72h-4.68V88.43h-2.2V96a3.44,3.44,0,0,0,6.88,0V93.61h-2.08v2.2Z" transform="translate(-349.18 -72.59)"/><path class="cls-2" d="M567.16,94.13a1.8,1.8,0,0,1,1.72-1.86,1.73,1.73,0,0,1,1.74,1.86Zm5.76,1.41c0-3.36-1.37-5-4-5s-4.09,1.68-4.09,4.3c0,3.06,1.41,4.61,4.23,4.61a3.66,3.66,0,0,0,3.71-2.72h-2.3a1.49,1.49,0,0,1-1.52,1c-1.1,0-1.82-.83-1.89-2.1Z" transform="translate(-349.18 -72.59)"/><path class="cls-2" d="M579.07,96.12a1.54,1.54,0,0,1-1.66,1.41c-.87,0-1.65-.89-1.65-2.73s.78-2.45,1.72-2.45a1.53,1.53,0,0,1,1.6,1.4h2.26c-.14-2-1.64-3.25-3.84-3.25-2.37,0-4,1.32-4,4.35s1.59,4.56,3.89,4.56a3.75,3.75,0,0,0,3.89-3.29Z" transform="translate(-349.18 -72.59)"/><path class="cls-2" d="M589.65,99.18V93.32a2.62,2.62,0,0,0-2.81-2.82A2.8,2.8,0,0,0,584.11,92V90.72H582v8.46h2.24V94.33c0-1.29.57-1.94,1.74-1.94s1.44.36,1.44,1.67v5.12Z" transform="translate(-349.18 -72.59)"/><path class="cls-2" d="M594.79,97.53c-1.36,0-2-.86-2-2.58s.69-2.56,2-2.56,2.05.84,2.05,2.56-.69,2.58-2.05,2.58Zm0,1.88A4.46,4.46,0,1,0,590.44,95a4.11,4.11,0,0,0,4.35,4.46Z" transform="translate(-349.18 -72.59)"/><polygon class="cls-2" points="252.96 26.6 252.96 15.04 250.72 15.04 250.72 26.6 252.96 26.6 252.96 26.6"/><path class="cls-2" d="M607.25,97.53c-1.36,0-2-.86-2-2.58s.69-2.56,2-2.56,2,.84,2,2.56-.68,2.58-2,2.58Zm0,1.88A4.46,4.46,0,1,0,602.89,95a4.11,4.11,0,0,0,4.36,4.46Z" transform="translate(-349.18 -72.59)"/><path class="cls-2" d="M616.42,97.5c-1.11,0-1.91-1-1.91-2.48,0-1.74.65-2.58,1.91-2.58s1.91.88,1.91,2.72c0,1.43-.83,2.34-1.91,2.34Zm1.84,1.94a1.93,1.93,0,0,1-2.14,1.83,1.62,1.62,0,0,1-1.85-1.62h-2.09c0,2.18,1.74,3.54,4.1,3.54s4.21-1.37,4.21-3.92V90.72h-2.23v1a2.59,2.59,0,0,0-2.38-1.27c-2,0-3.7,1.77-3.7,4.4,0,2.22,1,4.35,3.75,4.35a2.38,2.38,0,0,0,2.33-1.2v1.39Z" transform="translate(-349.18 -72.59)"/><path class="cls-2" d="M623.76,99.18V90.72h-2.23v8.46Zm0-9.48V87.62h-2.23V89.7Z" transform="translate(-349.18 -72.59)"/><path class="cls-2" d="M629.9,96a1.94,1.94,0,0,1-2,1.84c-.7,0-1.08-.31-1.08-1s.41-1.08,1.69-1.32a2.89,2.89,0,0,0,1.44-.5l0,.93Zm2.26,3.21V93.83c0-2.13-.93-3.33-3.62-3.33s-3.68,1.22-3.71,3h2.08a1.34,1.34,0,0,1,1.53-1.25c.88,0,1.43.32,1.43.87s-.31.81-1.43,1c-2.25.31-3.89.58-3.89,3,0,1.37.9,2.32,2.82,2.32a3.45,3.45,0,0,0,2.57-1,3.33,3.33,0,0,0,.14.75Z" transform="translate(-349.18 -72.59)"/><path class="cls-2" d="M495.43,150.8a1.27,1.27,0,0,1,.25-.42,1.08,1.08,0,0,1,.38-.28,1.24,1.24,0,0,1,.52-.1,1.29,1.29,0,0,1,.53.1,1.08,1.08,0,0,1,.38.28,1.1,1.1,0,0,1,.24.42,1.51,1.51,0,0,1,.09.53v0a1.51,1.51,0,0,1-.09.53,1.1,1.1,0,0,1-.24.42,1.08,1.08,0,0,1-.38.28,1.29,1.29,0,0,1-.53.1,1.24,1.24,0,0,1-.52-.1,1,1,0,0,1-.39-.28,1.1,1.1,0,0,1-.24-.42,1.51,1.51,0,0,1-.09-.53v0a2.17,2.17,0,0,1,.09-.53Zm.63.89a.92.92,0,0,0,.09.25.49.49,0,0,0,.18.17.53.53,0,0,0,.26.07.49.49,0,0,0,.25-.07.46.46,0,0,0,.17-.17.69.69,0,0,0,.1-.25,1,1,0,0,0,0-.31v0a1.53,1.53,0,0,0,0-.3.69.69,0,0,0-.1-.25.46.46,0,0,0-.17-.17.53.53,0,0,0-.26-.07.49.49,0,0,0-.25.07.42.42,0,0,0-.18.17.68.68,0,0,0-.09.25,1,1,0,0,0,0,.3v0a1.55,1.55,0,0,0,0,.31Z" transform="translate(-349.18 -72.59)"/></svg>