<svg id="efaa09db-a083-4045-b43e-7e20c09bffea" data-name="Layer 1" xmlns="http://www.w3.org/2000/svg" width="49.49" height="34.58" viewBox="0 0 49.49 34.58">
  <defs>
    <style>
      .a217947c-351f-44a3-9f47-04bf68c37d03 {
        fill: #c9c9c9;
      }
    </style>
  </defs>
  <title>quote</title>
  <path class="a217947c-351f-44a3-9f47-04bf68c37d03" d="M20.72,36.89a12.14,12.14,0,0,1-7.38,2.34A11.6,11.6,0,0,1,3.7,34.86,16.23,16.23,0,0,1,.24,24.49,19.8,19.8,0,0,1,1.88,16.3,18.42,18.42,0,0,1,6.52,10a20.39,20.39,0,0,1,7.09-4,26.58,26.58,0,0,1,8.46-1.37V6.49q-6.37,1.29-9.64,4.13T9.15,19.36a10.92,10.92,0,0,0,1.1,5.31,9.66,9.66,0,0,1,3.18-1.73,10.71,10.71,0,0,1,3-.45A6.63,6.63,0,0,1,22,24.92a8.2,8.2,0,0,1,1.91,5.13A7.9,7.9,0,0,1,20.72,36.89Zm25.85,0a12.14,12.14,0,0,1-7.38,2.34,12.15,12.15,0,0,1-9.83-4.37,15.67,15.67,0,0,1-3.64-10.37,18.12,18.12,0,0,1,1.81-8.19A20.14,20.14,0,0,1,39.45,6a26.58,26.58,0,0,1,8.46-1.37V6.49q-6.37,1.29-9.65,4.13T35,19.36q0,3.66,1.09,5.31a9.76,9.76,0,0,1,3.18-1.73,10.77,10.77,0,0,1,3-.45,6.63,6.63,0,0,1,5.55,2.43,8.2,8.2,0,0,1,1.91,5.13A7.92,7.92,0,0,1,46.57,36.89Z" transform="translate(-0.24 -4.65)"/>
</svg>
