<svg width="35" height="35" viewBox="0 0 35 35" fill="none" xmlns="http://www.w3.org/2000/svg">
<rect width="35" height="35" rx="17.5" fill="#E6E6E6"/>
<path fill-rule="evenodd" clip-rule="evenodd" d="M7.53613 17.822C7.46712 17.6146 7.46712 17.3904 7.53613 17.183C8.92313 13.01 12.8601 10 17.5001 10C22.1381 10 26.0731 13.007 27.4631 17.178C27.5331 17.385 27.5331 17.609 27.4631 17.817C26.0771 21.99 22.1401 25 17.5001 25C12.8621 25 8.92613 21.993 7.53613 17.822ZM19.6215 19.6213C20.1841 19.0587 20.5001 18.2956 20.5001 17.5C20.5001 16.7044 20.1841 15.9413 19.6215 15.3787C19.0588 14.8161 18.2958 14.5 17.5001 14.5C16.7045 14.5 15.9414 14.8161 15.3788 15.3787C14.8162 15.9413 14.5001 16.7044 14.5001 17.5C14.5001 18.2956 14.8162 19.0587 15.3788 19.6213C15.9414 20.1839 16.7045 20.5 17.5001 20.5C18.2958 20.5 19.0588 20.1839 19.6215 19.6213Z" fill="black" stroke="black" stroke-width="1.5" stroke-linecap="round" stroke-linejoin="round"/>
</svg>
