<?xml version="1.0" encoding="utf-8"?>
<!-- Generator: Adobe Illustrator 24.3.2, SVG Export Plug-In . SVG Version: 6.00 Build 0)  -->
<svg version="1.1" id="Camada_1" xmlns="http://www.w3.org/2000/svg" xmlns:xlink="http://www.w3.org/1999/xlink" x="0px" y="0px"
	 viewBox="0 0 350 350" style="enable-background:new 0 0 350 350;" xml:space="preserve">
<style type="text/css">
	.st0{fill:#FFFFFF;}
</style>
<path class="st0" d="M69.4,233.9c-32.6,0-59-26.4-59-59s26.4-59,59-59s59,26.5,59,59.1C128.4,207.5,102,233.9,69.4,233.9 M2,242.4
	h134.8V107.5H2V242.4L2,242.4z"/>
<polygon class="st0" points="157.2,135 148.9,111.3 148.6,111.3 148.6,135 145.1,135 145.1,107.5 151.2,107.5 158.9,129.8 
	159,129.8 166.3,107.5 172.3,107.5 172.3,135 168.6,135 168.6,111.3 168.4,111.3 160.4,135 157.2,135 "/>
<path class="st0" d="M176.2,124.5v-17h3.8v17c0,5.2,2.6,7.8,7.4,7.8c4.8,0,7.4-2.6,7.4-7.8v-17h3.7v17c0,8-4.9,11-11.2,11
	C181.1,135.5,176.2,132.5,176.2,124.5L176.2,124.5z"/>
<path class="st0" d="M204.3,124.9c0.2,5,3.7,7.6,8.3,7.6c4.1,0,6.7-1.7,6.7-4.7c0-2.5-1.7-3.8-5.2-4.5l-5.4-1.1
	c-4-0.8-6.8-3-6.8-7.2c0-4.8,3.8-8,9.8-8c6.9,0,10.8,3.7,10.9,9.8l-3.5,0.2c-0.1-4.5-2.8-7.1-7.4-7.1c-4,0-6.2,1.9-6.2,4.9
	c0,2.7,1.8,3.5,4.9,4.2l4.9,1c5,1,7.5,3.1,7.5,7.5c0,5.1-4.4,8-10.3,8c-6.8,0-11.7-3.7-11.7-10.3L204.3,124.9L204.3,124.9z"/>
<polygon class="st0" points="245.7,135 226.1,135 226.1,107.5 245.3,107.5 245.3,110.6 229.8,110.6 229.8,119.2 242.1,119.2 
	242.1,122.4 229.8,122.4 229.8,131.8 245.7,131.8 245.7,135 "/>
<path class="st0" d="M248.7,124.5v-17h3.8v17c0,5.2,2.6,7.8,7.4,7.8c4.8,0,7.4-2.6,7.4-7.8v-17h3.7v17c0,8-4.9,11-11.2,11
	C253.6,135.5,248.7,132.5,248.7,124.5L248.7,124.5z"/>
<polygon class="st0" points="164.1,164.3 164.1,143.4 167.7,143.4 167.7,170.8 164.7,170.8 148.7,148.8 148.7,170.8 145.2,170.8 
	145.2,143.4 149.1,143.4 164.1,164.3 "/>
<path class="st0" d="M185.2,143.3l11.4,27.4h-4l-3.3-8h-12.5l-3.2,8H170l11.2-27.4H185.2L185.2,143.3z M178,159.7h10.1l-5-12.2h-0.2
	L178,159.7L178,159.7z"/>
<path class="st0" d="M209.3,142.9c7.9,0,12.3,4.9,12.8,11.9l-3.7,0.2c-0.3-5.1-3.5-8.8-9.1-8.8c-5.6,0-9.6,4.2-9.6,11
	c0,6.8,4,11,9.6,11c5.7,0,8.8-3.8,9.1-8.8l3.7,0.2c-0.6,7.1-4.9,11.9-12.8,11.9c-7.6,0-13.5-5.7-13.5-14.2
	C195.8,148.6,201.7,142.9,209.3,142.9L209.3,142.9z"/>
<polygon class="st0" points="229.6,143.3 229.6,170.7 225.8,170.7 225.8,143.3 229.6,143.3 "/>
<path class="st0" d="M246.4,171.3c-8,0-13.6-5.7-13.6-14.2c0-8.5,5.6-14.2,13.6-14.2c8,0,13.6,5.7,13.6,14.2
	C260,165.6,254.3,171.3,246.4,171.3L246.4,171.3z M246.4,146c-5.9,0-9.7,4.3-9.7,11c0,6.7,3.8,11,9.7,11c5.9,0,9.7-4.3,9.7-11
	C256.1,150.3,252.3,146,246.4,146L246.4,146z"/>
<polygon class="st0" points="282,164.3 282,143.4 285.6,143.4 285.6,170.8 282.6,170.8 266.7,148.8 266.7,170.8 263.1,170.8 
	263.1,143.4 267,143.4 282,164.3 "/>
<path class="st0" d="M303.2,143.3l11.4,27.4h-4l-3.3-8h-12.5l-3.2,8h-3.7l11.2-27.4H303.2L303.2,143.3z M296,159.7H306l-5-12.2h-0.2
	L296,159.7L296,159.7z"/>
<polygon class="st0" points="320.7,143.3 320.7,167.6 336,167.6 336,170.7 316.9,170.7 316.9,143.3 320.7,143.3 "/>
<path class="st0" d="M145.2,179.2h9.9c8.6,0,14.1,5.1,14.1,13.7c0,8.6-5.4,13.7-14.1,13.7h-9.9V179.2L145.2,179.2z M154.9,203.4
	c6.8,0,10.3-4,10.3-10.6c0-6.7-3.7-10.6-10.3-10.6H149v21.2L154.9,203.4L154.9,203.4z"/>
<path class="st0" d="M184.2,179.2l11.4,27.4h-4l-3.3-8h-12.5l-3.2,8h-3.7l11.2-27.4H184.2L184.2,179.2z M177,195.5h10.1l-5-12.2
	h-0.2L177,195.5L177,195.5z"/>
<path class="st0" d="M163.1,242.4c-0.6-0.8-0.9-2.8-1.1-6c-0.2-3-1.6-5.1-5.3-5.1h-7.8v11h-3.7V215h11.2c6.9,0,10.3,3.2,10.3,8.1
	c0,4.2-2.8,6.4-6.3,6.8c3.3,0.6,4.9,2.7,5.2,5.9c0.4,4,0.5,5.6,1.4,6.6L163.1,242.4L163.1,242.4L163.1,242.4z M156.1,228.3
	c4.6,0,6.8-1.7,6.8-5.1c0-3.1-2.1-5.1-6.8-5.1h-7.2v10.3L156.1,228.3L156.1,228.3z"/>
<polygon class="st0" points="189.9,242.4 170.3,242.4 170.3,215 189.5,215 189.5,218.1 174,218.1 174,226.7 186.3,226.7 
	186.3,229.8 174,229.8 174,239.2 189.9,239.2 189.9,242.4 "/>
<path class="st0" d="M197.1,242.4h-3.8V215h10c6.8,0,10.7,3.2,10.7,8.6c0,5.4-3.9,8.6-10.7,8.6h-6.2V242.4L197.1,242.4z
	 M203.2,229.1c4.8,0,7.1-1.9,7.1-5.6s-2.3-5.5-7.1-5.5h-6.1v11L203.2,229.1L203.2,229.1z"/>
<path class="st0" d="M216.4,231.9v-17h3.8v17c0,5.2,2.6,7.8,7.4,7.8c4.8,0,7.4-2.6,7.4-7.8v-17h3.7v17c0,8-4.9,11-11.2,11
	C221.3,242.9,216.4,239.9,216.4,231.9L216.4,231.9z M226.2,212.9l2.3-5.5h4.4l-4.2,5.5H226.2L226.2,212.9z"/>
<path class="st0" d="M254.2,242.4h-11.7V215h11.2c6.8,0,9.6,3,9.6,7.3c0,3.2-2.3,5.3-5.2,5.9c3.3,0.6,6,2.8,6,6.8
	C264,239.6,260.5,242.4,254.2,242.4L254.2,242.4z M246.1,226.8h7.6c4,0,5.7-1.7,5.7-4.4c0-2.7-1.7-4.4-5.7-4.4h-7.6V226.8
	L246.1,226.8z M246.1,229.6v9.6h7.9c4.1,0,6.3-1.8,6.3-4.7c0-2.9-2.2-4.9-6.3-4.9H246.1L246.1,229.6z"/>
<polygon class="st0" points="271.1,215 271.1,239.3 286.4,239.3 286.4,242.4 267.3,242.4 267.3,215 271.1,215 "/>
<polygon class="st0" points="293,215 293,242.4 289.2,242.4 289.2,215 293,215 "/>
<path class="st0" d="M309.7,214.4c7.9,0,12.3,4.9,12.8,11.9l-3.7,0.2c-0.3-5.1-3.5-8.8-9.1-8.8c-5.6,0-9.6,4.2-9.6,11s4,11,9.6,11
	c5.7,0,8.8-3.8,9.1-8.8l3.7,0.2c-0.6,7.1-5,11.9-12.8,11.9c-7.6,0-13.5-5.7-13.5-14.2C296.2,220.2,302.1,214.4,309.7,214.4
	L309.7,214.4z"/>
<path class="st0" d="M337.6,215l11.4,27.4h-4l-3.3-8h-12.5l-3.2,8h-3.7l11.2-27.4H337.6L337.6,215z M330.4,231.3h10.1l-5-12.2h-0.2
	L330.4,231.3L330.4,231.3z"/>
</svg>
