<?xml version="1.0" encoding="utf-8"?>
<!-- Generator: Adobe Illustrator 24.3.2, SVG Export Plug-In . SVG Version: 6.00 Build 0)  -->
<svg version="1.1" id="Camada_1" xmlns="http://www.w3.org/2000/svg" xmlns:xlink="http://www.w3.org/1999/xlink" x="0px" y="0px"
	 viewBox="0 0 350 350" style="enable-background:new 0 0 350 350;" xml:space="preserve">
<style type="text/css">
	.st0{fill:#FFFFFF;}
</style>
<path class="st0" d="M63.1,173.8c2.5-8.3,4.9-16.6,7.5-24.8c-5.8-6.1-12.2-10.4-19.8-10.4c-7.8,0-16.6,4.3-26.1,10.4
	c-2.5,8.3-4.9,16.6-7.4,24.8c-2.6,8.3-5,16.6-7.5,25c9.4-5.9,18.2-10,25.9-10c7.8,0,14.1,4,19.9,10C58,190.3,60.6,182.1,63.1,173.8"
	/>
<path class="st0" d="M220.9,183.6c1.3-1.9,2.4-4,3-6.2c1.8-5.8,1.2-10.2-1.8-13c-0.3-0.4-0.7-0.6-1.2-1c-2.9-2.1-7.9-3.2-14.7-3.2
	H188l-14.7,50.1v0.1h17.2l4.9-16.7h3.5c1.6,0,3.1-0.1,4.6-0.3c4.4-0.6,8.3-1.9,11.7-4.2C217.4,187.8,219.3,185.9,220.9,183.6
	 M207.9,176.4c-0.4,1.7-1.5,3.3-3.1,4.2c-0.4,0.3-0.9,0.5-1.4,0.6c-1.3,0.5-2.9,0.8-4.8,0.8l3.2-11.1h1.6c1.8,0.1,3.2,0.5,4,1.4
	C208.3,173.1,208.5,174.6,207.9,176.4"/>
<polygon class="st0" points="134.5,184.5 135.9,179.5 124.3,179.5 126.3,172.3 139.6,172.3 143.3,160.1 113.1,160.1 116.2,149.1 
	70.8,149.1 112.7,160.4 101.5,198.8 55.2,198.8 98.1,210.3 115.2,210.3 120.7,191.4 132.4,191.4 134.5,184.5 "/>
<path class="st0" d="M337.2,164.3c-2.9-2.9-8.3-4.3-16-4.3h-18.2L292.7,195l-4.5,15.3h17.2l4.9-16.7h3.5c1.5,0,3.1-0.1,4.6-0.3
	c4.4-0.6,8.3-1.9,11.7-4.2c4.5-2.9,7.5-6.7,8.9-11.8C340.8,171.6,340.2,167.2,337.2,164.3 M323,176.4c-0.7,1.9-1.5,3.2-3.1,4.2
	c-0.4,0.3-0.9,0.5-1.4,0.6c-1.3,0.5-2.9,0.8-4.8,0.8l3.2-11.1h1.5c1.8,0.1,3.2,0.5,4,1.4C323.3,173.1,323.5,174.6,323,176.4"/>
<path class="st0" d="M289.6,187.4c-0.9-2.2-3.5-4.9-7.6-8.3c0-0.1-0.1-0.1-0.4-0.4c-2.3-1.8-3.4-3.4-3-4.6c0.3-0.9,0.9-1.7,1.8-2.2
	c1-0.6,2.2-0.9,3.4-0.9c1.6,0,3,0.4,4.6,1c1.5,0.7,2.9,1.5,4.3,2.5c0.1,0.2,0.4,0.4,0.7,0.5l3.8-13c-1.4-0.7-2.9-1.3-4.4-1.7
	c-0.8-0.1-1.4-0.4-2.1-0.5c-2.1-0.5-4.4-0.8-6.6-0.8c-5.6,0-10.5,1.4-14.7,4.2c-4.4,2.7-7.1,6.2-8.4,10.5c-0.6,2.5-0.6,4.8,0.1,6.8
	c0.9,2.2,3.4,5.2,7.4,9.1c0,0.1,0,0.1,0.1,0.1c2.2,2.3,3.2,4,2.9,5.2c-0.3,1.1-1,2.1-2.1,2.6c-1.1,0.7-2.3,1-3.6,1
	c-1.5,0-3.2-0.5-5-1.3c-1.4-0.7-2.7-1.5-4-2.3c-0.6-0.4-1.2-0.8-1.7-1.3l-4.2,13.8c1.8,1.1,3.8,2,5.8,2.7c0.1,0.1,0.4,0.1,0.5,0.3
	c2.2,0.6,4.6,0.8,6.8,0.9c6.3,0,11.8-1.6,16.4-4.5c4.6-3,7.8-6.9,9.2-11.8C290.5,192.1,290.4,189.6,289.6,187.4"/>
<polygon class="st0" points="238.1,197.4 240.1,190.3 252.1,190.3 255.6,178.7 243.5,178.7 245.5,172.3 258.6,172.3 262.3,160.1 
	231.7,160.1 220.9,197 217.1,210.3 247.5,210.3 251.4,197.4 238.1,197.4 "/>
<path class="st0" d="M173.2,160.1h-19.3l-19.4,34.5l-8.8,15.6h16.7l3.5-7.4h10.2l-0.9,7.4h16.7l1.3-49.3V160.1L173.2,160.1z
	 M157.4,192.8h-6.9l4.4-9.3l4.4-9.3L157.4,192.8L157.4,192.8z"/>
</svg>
