<?xml version="1.0" encoding="utf-8"?>
<!-- Generator: Adobe Illustrator 24.3.2, SVG Export Plug-In . SVG Version: 6.00 Build 0)  -->
<svg version="1.1" id="Camada_1" xmlns="http://www.w3.org/2000/svg" xmlns:xlink="http://www.w3.org/1999/xlink" x="0px" y="0px"
	 viewBox="0 0 350 350" style="enable-background:new 0 0 350 350;" xml:space="preserve">
<style type="text/css">
	.st0{fill:#FFFFFF;}
	.st1{fill:#FFFFFF;stroke:#FFFFFF;stroke-width:1.395;stroke-miterlimit:10;}
	.st2{fill-rule:evenodd;clip-rule:evenodd;fill:#FFFFFF;}
</style>
<path class="st0" d="M28.8,232.1l23.5-60.5h12.6l23.5,60.5H75.5l-6.3-16.1h-25l-6.3,16.1H28.8L28.8,232.1z M47.3,207.9h18.8
	l-9.4-24.1L47.3,207.9L47.3,207.9z"/>
<polygon class="st0" points="87.6,232.1 87.6,171.6 98.6,171.6 126.7,212.9 126.7,171.6 136.8,171.6 136.8,232.1 125.5,232.1 
	97.7,190.8 97.7,232.1 87.6,232.1 "/>
<polygon class="st0" points="142.5,232.1 142.5,171.6 155,171.6 155,232.1 142.5,232.1 "/>
<path class="st0" d="M154.1,232.1l23.5-60.5h12.6l23.5,60.5h-12.9l-6.3-16.1h-25l-6.3,16.1H154.1L154.1,232.1z M172.7,207.9h18.8
	l-9.4-24.1L172.7,207.9L172.7,207.9z"/>
<polygon class="st0" points="228.8,232.1 206.4,171.6 219.9,171.6 237.2,218.4 253.9,171.6 263,171.6 241.4,232.1 228.8,232.1 "/>
<path class="st1" d="M28.8,232.1l23.5-60.5h12.6l23.5,60.5H75.5l-6.3-16.1h-25l-6.3,16.1H28.8L28.8,232.1z M47.3,207.9h18.8
	l-9.4-24.1L47.3,207.9L47.3,207.9z"/>
<polygon class="st1" points="87.6,232.1 87.6,171.6 98.6,171.6 126.7,212.9 126.7,171.6 136.8,171.6 136.8,232.1 125.5,232.1 
	97.7,190.8 97.7,232.1 87.6,232.1 "/>
<polygon class="st1" points="142.5,232.1 142.5,171.6 155,171.6 155,232.1 142.5,232.1 "/>
<path class="st1" d="M154.1,232.1l23.5-60.5h12.6l23.5,60.5h-12.9l-6.3-16.1h-25l-6.3,16.1H154.1L154.1,232.1z M172.7,207.9h18.8
	l-9.4-24.1L172.7,207.9L172.7,207.9z"/>
<polygon class="st1" points="228.8,232.1 206.4,171.6 219.9,171.6 237.2,218.4 253.9,171.6 263,171.6 241.4,232.1 228.8,232.1 "/>
<path class="st0" d="M314.3,146.7l-4.1-10.4l-4.1,10.4H314.3L314.3,146.7z M317.9,155.9l-2.6-6.7H305l-2.7,6.7h-3.2l9.6-24.2h3.4
	l9.4,24.2H317.9L317.9,155.9z"/>
<path class="st0" d="M302,196.1v-24.2h8c2.4,0,4.3,0.3,5.8,0.8c1.5,0.5,2.8,1.4,3.8,2.7c1.7,2,2.6,4.7,2.6,8c0,4-1.1,7.1-3.2,9.3
	c-2.1,2.2-5.1,3.3-9,3.3H302L302,196.1z M305.4,193.5h4.4c3.1,0,5.4-0.8,6.7-2.5c1.4-1.8,2.1-4.2,2.1-7.2c0-2.8-0.7-5.1-2.1-6.7
	c-0.8-1-1.8-1.7-3-2c-1.2-0.4-2.9-0.5-5.3-0.5h-2.8V193.5L305.4,193.5z"/>
<path class="st0" d="M314.3,227l-4.1-10.4L306,227H314.3L314.3,227z M317.9,236.3l-2.6-6.7H305l-2.7,6.7h-3.2l9.6-24.2h3.4l9.4,24.2
	H317.9L317.9,236.3z"/>
<path class="st2" d="M52.2,257.5c6,0,10.9,4.9,10.9,10.9c0,6-4.9,10.9-10.9,10.9c-6,0-10.9-4.9-10.9-10.9
	C41.3,262.4,46.2,257.5,52.2,257.5L52.2,257.5z"/>
<path class="st2" d="M52.2,124.1c6,0,10.9,4.9,10.9,10.9c0,6-4.9,10.9-10.9,10.9c-6,0-10.9-4.9-10.9-10.9
	C41.3,129,46.2,124.1,52.2,124.1L52.2,124.1z"/>
<path class="st2" d="M256.1,124.8c6,0,10.9,4.9,10.9,10.9c0,6-4.9,10.9-10.9,10.9c-6,0-10.9-4.9-10.9-10.9
	C245.2,129.7,250.1,124.8,256.1,124.8L256.1,124.8z"/>
<path class="st2" d="M254.9,70.7c6,0,10.9,4.9,10.9,10.9c0,6-4.9,10.9-10.9,10.9c-6,0-10.9-4.9-10.9-10.9
	C244,75.6,248.9,70.7,254.9,70.7L254.9,70.7z"/>
<path class="st2" d="M181.3,70.7c6,0,10.9,4.9,10.9,10.9c0,6-4.9,10.9-10.9,10.9s-10.9-4.9-10.9-10.9
	C170.4,75.6,175.3,70.7,181.3,70.7L181.3,70.7z"/>
<path class="st2" d="M52.2,70.7c6,0,10.9,4.9,10.9,10.9c0,6-4.9,10.9-10.9,10.9c-6,0-10.9-4.9-10.9-10.9
	C41.3,75.6,46.2,70.7,52.2,70.7L52.2,70.7z"/>
</svg>
