<svg id="Layer_1" data-name="Layer 1" xmlns="http://www.w3.org/2000/svg" viewBox="0 0 1752.45 3544.26"><defs><style>.cls-1{fill:#fff;}</style></defs><path class="cls-1" d="M-1584.5,3492.32c3.8-12.78,7.6-25.63,11.61-38.41-9-9.39-18.79-16-30.6-16-12,0-25.63,6.63-40.42,16-3.8,12.78-7.59,25.63-11.39,38.41-4,12.78-7.81,25.63-11.61,38.62,14.58-9.19,28.19-15.41,40-15.41,12,0,21.83,6.22,30.81,15.41,3.8-13.06,7.8-25.84,11.6-38.62" transform="translate(1666.91 -6.16)"/><path class="cls-1" d="M-1340.44,3507.52a31,31,0,0,0,4.63-9.6c2.83-9,1.79-15.82-2.77-20.17a8,8,0,0,0-1.79-1.59c-4.42-3.18-12.23-5-22.8-5h-28.18l-22.8,77.44v.21h26.6l7.6-25.84h5.38c2.42,0,4.77-.21,7.19-.41a43.28,43.28,0,0,0,18-6.43,33.23,33.23,0,0,0,8.91-8.63m-20-11.19a10,10,0,0,1-4.77,6.42,8.85,8.85,0,0,1-2.21,1,20.71,20.71,0,0,1-7.39,1.17l5-17.2h2.42c2.76.21,5,.76,6.22,2.21s1.59,3.6.76,6.43" transform="translate(1666.91 -6.16)"/><polygon class="cls-1" points="192.8 3502.74 195.01 3494.93 177.05 3494.93 180.23 3483.74 200.81 3483.74 206.41 3464.95 159.78 3464.95 164.62 3447.96 94.43 3447.96 159.09 3465.37 141.82 3524.78 70.19 3524.78 136.64 3542.53 163.03 3542.53 171.59 3513.38 189.62 3513.38 192.8 3502.74 192.8 3502.74"/><path class="cls-1" d="M-1160.63,3477.68c-4.42-4.43-12.78-6.64-24.8-6.64h-28.18l-15.82,54-7,23.63h26.6l7.6-25.84h5.39c2.34,0,4.76-.2,7.18-.41a42.93,42.93,0,0,0,18-6.43,31,31,0,0,0,13.82-18.23c2.76-8.84,1.79-15.68-2.84-20.1m-22,18.65c-1,3-2.35,5-4.77,6.42a6.88,6.88,0,0,1-2.21,1,20.71,20.71,0,0,1-7.39,1.17l5-17.2h2.35c2.83.21,5,.76,6.22,2.21s1.59,3.6.83,6.43" transform="translate(1666.91 -6.16)"/><path class="cls-1" d="M-1234.2,3513.32c-1.38-3.38-5.38-7.6-11.81-12.78,0-.21-.21-.21-.62-.62-3.59-2.83-5.18-5.18-4.63-7.18a5.64,5.64,0,0,1,2.76-3.39,10.58,10.58,0,0,1,5.19-1.38,19.86,19.86,0,0,1,7.18,1.59,52.22,52.22,0,0,1,6.63,3.8,2,2,0,0,0,1,.76l5.8-20a51.37,51.37,0,0,0-6.77-2.62c-1.17-.21-2.21-.62-3.18-.76a45.9,45.9,0,0,0-10.22-1.18,41.36,41.36,0,0,0-22.8,6.43c-6.84,4.21-11,9.6-13,16.23a17.69,17.69,0,0,0,.2,10.57c1.38,3.39,5.18,8,11.4,14a.19.19,0,0,0,.21.21c3.38,3.59,5,6.22,4.42,8a6.2,6.2,0,0,1-3.18,4,10.5,10.5,0,0,1-5.59,1.59,20.12,20.12,0,0,1-7.81-2,57.59,57.59,0,0,1-6.22-3.59,15.33,15.33,0,0,1-2.62-2l-6.43,21.42a48.94,48.94,0,0,0,9,4.21c.21.21.62.21.76.41a45.76,45.76,0,0,0,10.57,1.39c9.81,0,18.24-2.42,25.42-7s12-10.64,14.23-18.24a18.32,18.32,0,0,0,.07-11.88" transform="translate(1666.91 -6.16)"/><polygon class="cls-1" points="353.06 3522.56 356.24 3511.72 374.69 3511.72 380.07 3493.76 361.49 3493.76 364.46 3483.74 384.84 3483.74 390.44 3464.95 343.26 3464.95 326.47 3521.94 320.67 3542.53 367.64 3542.53 373.65 3522.56 353.06 3522.56 353.06 3522.56"/><path class="cls-1" d="M-1414.22,3471.11h-29.84l-30,53.4-13.61,24.18h25.84l5.39-11.4h15.82l-1.39,11.4h25.84l2-76.2v-1.38Zm-24.45,50.57h-10.64l6.77-14.44,6.77-14.37-2.9,28.81Z" transform="translate(1666.91 -6.16)"/><path class="cls-1" d="M14.26,15.22c.63-2.12,1.27-4.26,1.93-6.39C14.7,7.27,13.06,6.16,11.1,6.16S6.83,7.27,4.37,8.83C3.74,11,3.11,13.1,2.47,15.22S1.18,19.49.54,21.65C3,20.12,5.23,19.09,7.2,19.09a7.17,7.17,0,0,1,5.13,2.56c.63-2.17,1.3-4.3,1.93-6.43" transform="translate(1666.91 -6.16)"/><path class="cls-1" d="M54.88,17.75a5.17,5.17,0,0,0,.78-1.6c.47-1.49.29-2.63-.46-3.35a1.33,1.33,0,0,0-.3-.27,6.8,6.8,0,0,0-3.8-.83H46.41L42.62,24.59v0H47l1.27-4.3h.89c.41,0,.8,0,1.2-.07a7.23,7.23,0,0,0,3-1.07,5.34,5.34,0,0,0,1.48-1.44m-3.33-1.86A1.65,1.65,0,0,1,50.76,17a1.34,1.34,0,0,1-.37.16,3.37,3.37,0,0,1-1.23.2L50,14.45h.4a1.48,1.48,0,0,1,1,.37,1,1,0,0,1,.13,1.07" transform="translate(1666.91 -6.16)"/><polygon class="cls-1" points="1699.55 11.82 1699.91 10.52 1696.92 10.52 1697.45 8.66 1700.88 8.66 1701.81 5.53 1694.05 5.53 1694.85 2.7 1683.17 2.7 1693.93 5.6 1691.06 15.49 1679.13 15.49 1690.2 18.44 1694.59 18.44 1696.02 13.59 1699.02 13.59 1699.55 11.82 1699.55 11.82"/><path class="cls-1" d="M84.82,12.78c-.74-.73-2.13-1.1-4.13-1.1H76l-2.64,9L72.2,24.61h4.43l1.26-4.31h.9c.39,0,.79,0,1.2-.06a7.42,7.42,0,0,0,3-1.07,5.19,5.19,0,0,0,2.3-3c.46-1.47.3-2.61-.47-3.35m-3.66,3.11A1.83,1.83,0,0,1,80.37,17a1.19,1.19,0,0,1-.37.16,3.41,3.41,0,0,1-1.23.2l.83-2.87H80a1.48,1.48,0,0,1,1,.37,1.06,1.06,0,0,1,.14,1.07" transform="translate(1666.91 -6.16)"/><path class="cls-1" d="M72.57,18.72a6.5,6.5,0,0,0-2-2.13s0,0-.1-.1c-.6-.47-.86-.87-.77-1.2a.92.92,0,0,1,.46-.56,1.73,1.73,0,0,1,.86-.23,3.37,3.37,0,0,1,1.2.26,10.05,10.05,0,0,1,1.1.63.31.31,0,0,0,.17.13l1-3.33a7.13,7.13,0,0,0-1.13-.44c-.19,0-.37-.1-.53-.13a8,8,0,0,0-1.7-.19,6.86,6.86,0,0,0-3.79,1.07,4.64,4.64,0,0,0-2.16,2.7,2.84,2.84,0,0,0,0,1.76,8.3,8.3,0,0,0,1.9,2.33s0,0,0,0c.57.6.83,1,.74,1.33a1.05,1.05,0,0,1-.53.67,1.79,1.79,0,0,1-.93.26,3.28,3.28,0,0,1-1.3-.33,9,9,0,0,1-1-.6,2.34,2.34,0,0,1-.43-.33l-1.07,3.56a7.5,7.5,0,0,0,1.49.7s.11,0,.13.07a7.45,7.45,0,0,0,1.76.23,7.72,7.72,0,0,0,4.23-1.16,5.34,5.34,0,0,0,2.37-3,3.11,3.11,0,0,0,0-2" transform="translate(1666.91 -6.16)"/><polygon class="cls-1" points="1726.22 15.12 1726.75 13.31 1729.82 13.31 1730.72 10.33 1727.62 10.33 1728.12 8.66 1731.51 8.66 1732.44 5.53 1724.59 5.53 1721.8 15.02 1720.83 18.44 1728.65 18.44 1729.65 15.12 1726.22 15.12 1726.22 15.12"/><path class="cls-1" d="M42.6,11.69h-5l-5,8.89-2.27,4h4.3l.9-1.89H38.2L38,24.6h4.3l.33-12.68v-.23Zm-4.07,8.42H36.76l1.13-2.4L39,15.31l-.49,4.8Z" transform="translate(1666.91 -6.16)"/></svg>