<?xml version="1.0" encoding="utf-8"?>
<!-- Generator: Adobe Illustrator 23.0.1, SVG Export Plug-In . SVG Version: 6.00 Build 0)  -->
<svg version="1.1" id="Layer_1" xmlns="http://www.w3.org/2000/svg" xmlns:xlink="http://www.w3.org/1999/xlink" x="0px" y="0px"
	 viewBox="0 0 101.6 34" style="enable-background:new 0 0 101.6 34;" xml:space="preserve">
<title>SIIMI18 proposta 1</title>
<g id="Camada_2">
	<path d="M16.1,0v15.6h-1.3V1.7L8.3,7.9L8.1,8.1H8L7.8,7.9L1.3,1.7v13.8H0V0h1.5l6.6,6.2L14.6,0H16.1z"/>
	<path d="M21.5,1.3v5.1h6.8v1.3h-6.8v6.4h9.1v1.3H20.2V0h10.4v1.3H21.5z"/>
	<path d="M46.5,2.8v10l-3,2.8h-8.8V0h8.8L46.5,2.8z M36,14.2h7l2.2-2V3.4L43,1.3h-7V14.2z"/>
	<path d="M52.1,1.1v13.3h1.5v1.1h-4.4v-1.1h1.5V1.1h-1.5V0h4.4v1.1H52.1z"/>
	<path d="M12.4,32.6V34H0V18.5h1.3v14.1H12.4z"/>
	<path d="M24.3,19.9L17.2,34h-1.4l7.8-15.5H25L32.8,34h-1.4L24.3,19.9z"/>
	<path d="M64.7,1.4l-7.1,14.1h-1.5L64,0h1.4l7.8,15.6h-1.5L64.7,1.4z"/>
	<path d="M46.5,24.8l-2,1.5l2,1.4V32l-2.2,2h-9.6V18.5h9.6l2.2,2C46.5,20.5,46.5,24.8,46.5,24.8z M36.1,19.8v5.8h7.1l2-1.5v-3
		l-1.3-1.3H36.1z M36.1,32.7h7.7l1.3-1.3v-3l-2-1.5H36L36.1,32.7z"/>
</g>
<g>
	<path d="M70.9,18.5v13.5l-2,1.9h-8.1l-2-1.9V18.5h1.3v13l1.2,1.2h7l1.2-1.2v-13H70.9z"/>
	<path d="M86.4,18.5V34h-1.9l-8.8-13.7V34h-1.3V18.5h1.9l8.7,13.6V18.5H86.4z"/>
	<path d="M101.7,24.8l-2,1.4l2,1.4V32l-2.1,2H90V18.5h9.5l2.1,2V24.8z M91.4,19.9v5.7h7l2-1.5v-3L99,19.9H91.4z M91.4,32.7H99
		l1.3-1.3v-3l-2-1.5h-7V32.7z"/>
</g>
<g>
	<polygon points="54.7,18.5 46.9,34 48.3,34 56.1,18.5 	"/>
</g>
</svg>
