<?xml version="1.0" encoding="utf-8"?>
<!-- Generator: Adobe Illustrator 24.3.2, SVG Export Plug-In . SVG Version: 6.00 Build 0)  -->
<svg version="1.1" id="Camada_1" xmlns="http://www.w3.org/2000/svg" xmlns:xlink="http://www.w3.org/1999/xlink" x="0px" y="0px"
	 viewBox="0 0 350 350" style="enable-background:new 0 0 350 350;" xml:space="preserve">
<style type="text/css">
	.st0{fill:#FFFFFF;}
</style>
<path class="st0" d="M152.4,162.9c-9,6.5-18.8,12.1-29.4,16.7c-5.2,2.3-10.9,3.8-16.8,4.6c-4.2,0.5-8.5,0.8-12.9,0.8v34.6h86.4
	v-76.4L152.4,162.9L152.4,162.9z"/>
<path class="st0" d="M29.4,162.9c9,6.5,18.8,12.1,29.4,16.7c5.2,2.3,10.9,3.8,16.8,4.6c4.2,0.5,8.5,0.8,12.9,0.8v34.6H2v-76.4
	L29.4,162.9L29.4,162.9z"/>
<path class="st0" d="M93.4,130.5V180c4.1,0,8.2-0.2,12.2-0.7c5.5-0.7,10.6-2.1,15.4-4.2c10.2-4.4,19.7-9.9,28.4-16.1l30.3-21.9v-6.4
	L93.4,130.5L93.4,130.5L93.4,130.5z"/>
<path class="st0" d="M88.4,130.5V180c-4.1,0-8.3-0.2-12.2-0.7c-5.5-0.7-10.6-2.1-15.4-4.2c-10.2-4.4-19.7-9.9-28.4-16.1L2,137v-6.4
	L88.4,130.5L88.4,130.5L88.4,130.5z"/>
<path class="st0" d="M152.4,162.9c-9,6.5-18.8,12.1-29.4,16.7c-5.2,2.3-10.9,3.8-16.8,4.6c-4.2,0.5-8.5,0.8-12.9,0.8v34.6h86.4
	v-76.4L152.4,162.9L152.4,162.9z"/>
<path class="st0" d="M29.4,162.9c9,6.5,18.8,12.1,29.4,16.7c5.2,2.3,10.9,3.8,16.8,4.6c4.2,0.5,8.5,0.8,12.9,0.8v34.6H2v-76.4
	L29.4,162.9L29.4,162.9z"/>
<path class="st0" d="M93.4,130.5V180c4.1,0,8.2-0.2,12.2-0.7c5.5-0.7,10.6-2.1,15.4-4.2c10.2-4.4,19.7-9.9,28.4-16.1l30.3-21.9v-6.4
	L93.4,130.5L93.4,130.5L93.4,130.5z"/>
<path class="st0" d="M88.4,130.5V180c-4.1,0-8.3-0.2-12.2-0.7c-5.5-0.7-10.6-2.1-15.4-4.2c-10.2-4.4-19.7-9.9-28.4-16.1L2,137v-6.4
	L88.4,130.5L88.4,130.5L88.4,130.5z"/>
<path class="st0" d="M214.4,181v-30.7h11.3v29.9c0,7.8,3.6,11.4,10,11.4c6.5,0,9.7-3.7,9.7-11.8v-29.6h11.4v30.2
	c0,13.6-8.1,19.9-21.3,19.9C222.8,200.4,214.4,194.7,214.4,181L214.4,181z"/>
<path class="st0" d="M290.3,199.7v-22.2c0-5.3-1.5-8-5.9-8c-4.5,0-7.1,3.9-7.1,10.1v20.1h-11.1v-29.1c0-3.9-0.1-6.6-0.2-8.8h10.6
	c0.1,1.3,0.5,5.7,0.5,7.8c1.9-6,6.6-8.5,12.1-8.5c9.5,0,12.2,6.4,12.2,13.5v25.1L290.3,199.7L290.3,199.7z"/>
<path class="st0" d="M328.4,178.3h-6.3v13.2h6.6c5.2,0,8.8-1.7,8.8-6.8C337.5,179.7,333.4,178.3,328.4,178.3L328.4,178.3z
	 M327.1,158.4h-5v11.5h5c5.4,0,7.7-1.8,7.7-5.8C334.8,159.9,332.4,158.4,327.1,158.4L327.1,158.4z M329.8,199.7H311v-49.4h17.1
	c11.5,0,18,4.2,18,12.5c0,5.6-3,9.2-8.9,10.7c7.6,1,11.8,5.5,11.8,12.1C349,195.5,340.9,199.7,329.8,199.7L329.8,199.7z"/>
</svg>
