<?xml version="1.0" encoding="utf-8"?>
<!-- Generator: Adobe Illustrator 23.0.1, SVG Export Plug-In . SVG Version: 6.00 Build 0)  -->
<svg version="1.1" id="Layer_1" xmlns="http://www.w3.org/2000/svg" xmlns:xlink="http://www.w3.org/1999/xlink" x="0px" y="0px"
	 viewBox="0 0 86.3 34" style="enable-background:new 0 0 86.3 34;" xml:space="preserve">
<style type="text/css">
	.st0{fill:#FFFFFF;}
</style>
<title>SIIMI18 proposta 1</title>
<g id="Camada_2">
	<path class="st0" d="M16.1,0v15.6h-1.3V1.7L8.3,7.9L8.1,8.1H8L7.8,7.9L1.3,1.7v13.8H0V0h1.5l6.6,6.2L14.6,0H16.1z"/>
	<path class="st0" d="M21.5,1.3v5.1h6.8v1.3h-6.8v6.4h9.1v1.3H20.2V0h10.4v1.3H21.5z"/>
	<path class="st0" d="M46.5,2.8v10l-3,2.8h-8.8V0h8.8L46.5,2.8z M36,14.2h7l2.2-2V3.4L43,1.3h-7V14.2z"/>
	<path class="st0" d="M52.1,1.1v13.3h1.5v1.1h-4.4v-1.1h1.5V1.1h-1.5V0h4.4v1.1H52.1z"/>
	<path class="st0" d="M12.4,32.6V34H0V18.5h1.3v14.1H12.4z"/>
	<path class="st0" d="M24.3,19.9L17.2,34h-1.4l7.8-15.5H25L32.8,34h-1.4L24.3,19.9z"/>
	<path class="st0" d="M64.7,1.4l-7.1,14.1h-1.5L64,0h1.4l7.8,15.6h-1.5L64.7,1.4z"/>
	<path class="st0" d="M46.5,24.8l-2,1.5l2,1.4V32l-2.2,2h-9.6V18.5h9.6l2.2,2V24.8z M36.1,19.8v5.8h7.1l2-1.5v-3l-1.3-1.3L36.1,19.8
		z M36.1,32.7h7.7l1.3-1.3v-3l-2-1.5H36L36.1,32.7z"/>
	<path class="st0" d="M70.5,24.8l-2,1.5l2,1.4V32l-2.2,2h-9.6V18.5h9.6l2.2,2V24.8z M60.1,19.8v5.8h7.1l2-1.5v-3l-1.4-1.3L60.1,19.8
		z M60.1,32.7h7.7l1.4-1.3v-3l-2-1.5h-7.1L60.1,32.7z"/>
	<path class="st0" d="M80.9,27.3H75V34h-1.3V18.5h9.6l2.2,2v4.7l-2.9,2.1l3.8,6.7h-1.7L80.9,27.3z M75,26h7.1l2-1.5v-3.5l-1.4-1.3
		H75V26z"/>
	<polygon class="st0" points="54.7,18.5 46.9,34 48.3,34 56.1,18.5 	"/>
</g>
</svg>
