<?xml version="1.0" encoding="utf-8"?>
<!-- Generator: Adobe Illustrator 24.3.2, SVG Export Plug-In . SVG Version: 6.00 Build 0)  -->
<svg version="1.1" id="Camada_1" xmlns="http://www.w3.org/2000/svg" xmlns:xlink="http://www.w3.org/1999/xlink" x="0px" y="0px"
	 viewBox="0 0 350 350" style="enable-background:new 0 0 350 350;" xml:space="preserve">
<style type="text/css">
	.st0{fill-rule:evenodd;clip-rule:evenodd;fill:#FFFFFF;}
</style>
<path class="st0" d="M314.4,190.4c-0.2,0.5-0.2,0.9-0.4,1.3c0,0.4,0,0.8-0.2,1.2c0,0.4,0,0.8,0,1.5c0,0.4-0.1,0.8-0.1,1.2
	c0,1.7,0.4,3.3,1.2,4.5c0.8,1.3,2.1,1.9,4,1.9c2.4,0,4.4-0.5,5.9-2c1.7-1.5,3.2-4.6,4.4-9.4c0.4-0.8,0.6-1.7,0.8-2.8
	c0-0.9,0.2-2,0.2-2.9c0-2-0.7-3.8-1.5-5.4c-0.8-1.6-2.4-2.4-4.7-2.4c-2,0-3.8,0.8-5.1,2.4c-1.5,1.9-2.4,3.6-3,5.5
	c-0.4,1.1-0.8,2-0.9,3C314.5,189,314.4,189.7,314.4,190.4L314.4,190.4L314.4,190.4L314.4,190.4z M297.8,194.9c0-1.2,0-2.4,0.1-3.6
	c0.2-1.2,0.4-2.5,0.8-4c1.1-4.7,3.4-9.3,6.8-13.5c3.6-4.2,8.7-6.4,16.1-6.6c2.1,0,4,0.4,5.8,1.6c1.6,1.2,2.9,2.6,4.1,4.1
	c0.2,0.1,0.4,0.4,0.4,0.8c0.2,0.1,0.4,0.4,0.6,0.5l1.3-5.1h15.5L337,226.4h-15.5l4.4-21.8c-1.1,1.2-2,2.4-3,3.2
	c-0.9,0.8-2,1.6-2.8,2.1c-1.3,0.7-2.5,1.1-4,1.5c-1.2,0.1-2.8,0.4-4.4,0.4c-4.9,0-8.3-1.2-10.3-3.6c-1.7-2.3-2.9-4.7-3.3-7.2
	c-0.2-0.9-0.4-2-0.4-2.9C297.8,196.9,297.8,196,297.8,194.9L297.8,194.9z M273.1,178.1c2.4,0.1,4.6-0.6,6.4-2.3
	c1.9-1.6,3-3.2,3.6-5.1c0-0.2,0.2-0.6,0.2-1.1c0-0.1,0-0.5,0-0.9c0-1.5-0.6-2.6-1.9-3.8c-0.9-0.9-2.9-1.6-5.7-1.6h-8.6l-3.2,14.8
	L273.1,178.1L273.1,178.1z M252.5,151.1h27.6c0.8,0.2,1.3,0.2,2.1,0.2c0.8,0,1.5,0,2.3,0c4.1,0.4,8.1,1.3,11.7,3.3
	c3.6,2,5.4,5.5,5.4,10.7c0,8.9-2.8,14.9-8.3,18.9c-5.5,3.8-12.1,5.5-19.4,5.5h-12.4l-4.4,20.5h-16.8L252.5,151.1L252.5,151.1z
	 M185.8,151.1h23.8l10.4,42.5l9.6-42.5h15.5l-12.8,59.2H209l-11.1-44.9l-9,44.9h-15.5L185.8,151.1L185.8,151.1z M116.4,189.2
	c0-2.3,0-4.6,0.4-7.1c0.4-2.8,0.9-5.4,1.7-8.2c1.9-5.9,5.4-11.5,10.7-16.6c5.1-5.1,13.1-7.8,23.8-7.9c1.2,0,2.6,0,4,0
	c1.5,0.1,3,0.4,4.4,0.5c4.2,0.6,8.1,1.9,11.7,4c3.3,2,5.1,5.4,5.1,10.2c0,0.8,0,1.3,0,2.1c-0.2,0.8-0.4,1.6-0.6,2.4h-18.1
	c0.2-0.4,0.2-0.5,0.2-0.9c0-0.2,0-0.4,0-0.8c0-1.9-0.7-3.4-1.6-4.2c-1.2-0.9-2.4-1.6-3.8-2c-0.5-0.1-1.3-0.1-2-0.4
	c-0.5,0-1.2,0-1.7,0c-0.4,0-1.1,0-1.5,0.2c-0.5,0-0.9,0.1-1.6,0.1c-2.4,0.8-4.7,2.6-7.1,5.5c-2.1,3-4,7.7-5.3,13.4
	c0,0.6-0.2,1.1-0.2,1.6c-0.1,0.4-0.1,1.1-0.1,1.5c-0.2,1.2-0.4,2.1-0.4,3.2c-0.2,0.9-0.2,1.7-0.2,2.8c0,3.2,0.7,5.7,1.9,7.9
	c1.3,2.1,3.6,3.3,6.9,3.3c0.4,0,0.7,0,1.1,0c0.1,0,0.5-0.1,0.9-0.1c0.6,0,1.1,0,1.6-0.2c0.6-0.1,1.2-0.4,2-0.5
	c1.6-0.8,3-1.9,4.4-3.2c1.5-1.6,2.3-3.2,2.4-5l17.3-0.1c0.2,0.1,0.2,0.4,0.2,0.5c0,0,0,0.2,0,0.4c0,1.1-0.4,2.4-1.1,4
	c-0.8,1.9-2,3.8-3.6,5.5c-2.3,2.6-5.5,5-9.8,7.4c-4.4,2.3-9.9,3.4-16.6,3.4h-1.3c-9.1,0-15.3-2-18.5-5.8c-2.9-3.7-4.7-7.8-5.3-12.3
	c0-0.8,0-1.5,0-2.3C116.4,190.6,116.4,190,116.4,189.2L116.4,189.2z M49.8,167c0-6.6,5.3-11.7,11.7-11.7c6.5,0,11.7,5.1,11.7,11.7
	c0,6.4-5.1,11.5-11.7,11.5C55,178.5,49.8,173.3,49.8,167L49.8,167z M101.6,147.1c8.6,18.7,3,36.7-3.3,45.2l9.6,36.2H96.4l-11.2-39
	c6.9-6.8,11.5-20.4,7.9-31.6c-3-11.2-12.5-21-25.8-23.5c-14.5-3-28,4.4-33.8,14.4c-3.7,5.8-4.4,11.1-4.9,17.7c0,0-7.1,17.3-9.8,23.6
	h7.8v26.6h47.4l3.3,12H14.9v-28.3H1.7c0,0,14.4-32.9,14.3-34c0.9-11.7,6.1-26,17.2-34.8c5.5-4.4,13.1-8.5,23.3-9.5
	c11-1.2,15.7,0.8,22.9,3.4C91.5,130.9,99.8,142.5,101.6,147.1L101.6,147.1z M89.7,157.6c1.9,7.1,1.6,11.2,0.2,16.8
	c-1.6,6.4-5,11.2-8.3,14L93.5,229H81.6c-3.8-14.9-8.7-31.3-12.7-45.9c2.4-1.5,9.1-5.1,10-14.1c1.1-8.3-4.1-14.9-7.7-17.3
	c-3.2-2-7.8-3.3-12.1-2.5c-8.3,0.9-13.9,7.5-15.3,14.7c-0.1,0.9-0.1,1.3-0.1,2.8c0,0-3.4,9.1-4.4,11.9h2.4v23.6h28.1l3.4,11.7H29.9
	v-26.4l-5.9-0.2c2.3-6.4,7.8-20.6,7.8-20.6c0.5-5.1,0.9-15.1,11.5-23.3c4.7-4.1,12.5-6.9,20.6-6.1C77.7,138.8,86.5,148.1,89.7,157.6
	L89.7,157.6z"/>
</svg>
