<?xml version="1.0" encoding="utf-8"?>
<!-- Generator: Adobe Illustrator 24.3.2, SVG Export Plug-In . SVG Version: 6.00 Build 0)  -->
<svg version="1.1" id="Camada_1" xmlns="http://www.w3.org/2000/svg" xmlns:xlink="http://www.w3.org/1999/xlink" x="0px" y="0px"
	 viewBox="0 0 350 350" style="enable-background:new 0 0 350 350;" xml:space="preserve">
<style type="text/css">
	.st0{fill:#FFFFFF;}
	.st1{fill:#4DAFFF;}
</style>
<path class="st0" d="M97.6,191.8l-5.8-55.5c-1.3-12.5,7.8-23.8,20.3-25.1l62.8-6.6l6.9-32.7H96c-18.9,0-34.2,15.3-34.2,34.2v97.3
	L97.6,191.8L97.6,191.8L97.6,191.8z"/>
<polygon class="st0" points="176.1,277.1 164.1,277.1 164.1,225.7 176.1,225.7 176.1,277.1 "/>
<path class="st0" d="M201.8,277.9c-10.1,0-15.2-4.8-15.2-14.4v-17.3h-6.5v-8.8h6.5V227h11.6v10.3h9.9v8.8h-9.9v16.2
	c0,4.2,2.1,6.2,6.2,6.2c1.6,0,3.2-0.3,4.6-0.8v8.9C206.4,277.5,204,277.9,201.8,277.9L201.8,277.9z"/>
<path class="st0" d="M225,278.1c-4,0-7.1-1.1-9.5-3.2c-2.4-2.1-3.5-4.9-3.5-8.4c0-4.5,1.7-8,5.3-10.5c3.5-2.5,8.4-3.8,14.8-3.8
	c0.6,0,1.1,0,1.7,0c0.6,0,1.1,0.1,1.6,0.1c-0.3-2.3-1.1-4-2.5-5.1c-1.4-1.1-3.4-1.6-6.1-1.6c-3.7,0-7.5,1-11.3,3v-9.1
	c4.1-2.1,8.4-3.1,13.2-3.1c5.7,0,10,1.5,13.1,4.5c3,3,4.6,7.3,4.6,12.9v23.4h-9.4l-0.6-4.2h-0.8c-1.1,1.6-2.6,2.9-4.4,3.8
	C229.3,277.6,227.2,278.1,225,278.1L225,278.1L225,278.1z M228.4,270.2c2,0,3.7-0.7,5-2.1c1.4-1.4,2.1-3.2,2.1-5.2v-3.3
	c-0.5-0.1-0.9-0.1-1.4-0.1h-1.5c-3.1,0-5.5,0.5-7.2,1.5c-1.7,1-2.6,2.4-2.6,4.2c0,1.6,0.5,2.8,1.5,3.7
	C225.4,269.7,226.7,270.2,228.4,270.2L228.4,270.2L228.4,270.2z"/>
<path class="st0" d="M266.3,278.1c-4.1,0-7.3-1.4-9.7-4.3c-2.4-2.8-3.7-6.6-3.7-11.2v-25.3h11.6v23.4c0,2.5,0.5,4.5,1.6,5.9
	c1,1.4,2.5,2.1,4.4,2.1s3.5-0.7,4.6-2.1c1.1-1.4,1.7-3.3,1.7-5.7v-23.4h11.6v39.7h-10.1l-0.6-4.3h-0.8
	C274.3,276.3,270.8,278.1,266.3,278.1L266.3,278.1z M285.4,220.4l-10.7,12.1h-10l8.3-12.1H285.4L285.4,220.4z"/>
<path class="st1" d="M227.9,122l5.5,52.4h33.6v-68.2c0-18.9-15.3-34.2-34.2-34.2h-42.3l-6.8,31.8l19-2
	C215.4,100.4,226.6,109.5,227.9,122L227.9,122z"/>
<path class="st0" d="M155.9,244.3l-29.5,3.1c-12.5,1.3-23.8-7.8-25.1-20.3l-2.8-26.6l-36.8,12v30.6c0,18.9,15.3,34.2,34.2,34.2h59.9
	V244.3L155.9,244.3z"/>
<polygon class="st0" points="119.9,215.2 113.1,215.2 113.1,185.3 132.2,185.3 132.2,191.1 119.9,191.1 119.9,198 130,198 
	130,203.8 119.9,203.8 119.9,215.2 "/>
<path class="st0" d="M140.9,215.8c-2.4,0-4.3-0.8-5.7-2.5c-1.4-1.7-2.1-3.8-2.1-6.5v-14.7h6.7v13.6c0,1.5,0.3,2.6,0.9,3.4
	c0.6,0.8,1.5,1.2,2.6,1.2c1.1,0,2-0.4,2.7-1.2c0.7-0.8,1-1.9,1-3.4v-13.7h6.7v23.2h-5.9l-0.4-2.5
	C145.9,214.8,143.7,215.8,140.9,215.8L140.9,215.8L140.9,215.8z"/>
<path class="st0" d="M156.7,215.2v-23.2h5.9l0.4,2.7c1.6-2.2,3.8-3.2,6.7-3.2c2.4,0,4.4,0.8,5.8,2.5c1.4,1.7,2.2,3.8,2.2,6.6v14.7
	h-6.7v-13.6c0-3-1.2-4.5-3.6-4.5c-1.2,0-2.1,0.4-2.8,1.2c-0.7,0.8-1,1.9-1,3.3v13.6L156.7,215.2L156.7,215.2L156.7,215.2z"/>
<path class="st0" d="M189,215.8c-1.9,0-3.6-0.5-5-1.5c-1.4-1-2.5-2.4-3.3-4.2c-0.8-1.8-1.2-4-1.2-6.4c0-2.5,0.4-4.7,1.2-6.5
	c0.8-1.8,1.9-3.2,3.4-4.2s3.1-1.5,5-1.5c2.5,0,4.5,0.9,5.9,2.6v-10.8h6.7v31.9h-5.9l-0.4-2.8c-0.6,1.1-1.5,1.9-2.7,2.5
	C191.7,215.5,190.4,215.8,189,215.8L189,215.8z M190.8,210.4c1.4,0,2.5-0.6,3.3-1.8c0.8-1.2,1.2-2.8,1.2-4.9c0-2.1-0.4-3.8-1.2-5
	c-0.8-1.2-1.9-1.8-3.3-1.8c-1.4,0-2.5,0.6-3.3,1.8c-0.8,1.2-1.2,2.8-1.2,4.9c0,2.1,0.4,3.8,1.2,5
	C188.3,209.8,189.4,210.4,190.8,210.4L190.8,210.4z"/>
<path class="st0" d="M211.3,215.8c-2.3,0-4.1-0.6-5.5-1.8c-1.4-1.2-2.1-2.9-2.1-4.9c0-2.6,1-4.7,3.1-6.1c2-1.5,4.9-2.2,8.6-2.2
	c0.3,0,0.7,0,1,0c0.3,0,0.6,0,1,0.1c-0.3-2.6-2-3.9-5-3.9c-2.4,0-4.6,0.7-6.6,2.1v-5.3c2-1.4,4.6-2.2,7.7-2.2c3.3,0,5.9,0.9,7.6,2.6
	c1.8,1.7,2.7,4.2,2.7,7.5v13.6h-5.5l-0.4-2.4c-0.7,0.9-1.6,1.7-2.8,2.2C214,215.6,212.7,215.8,211.3,215.8L211.3,215.8L211.3,215.8z
	 M217.4,204.9c-0.4,0-1,0-1.7,0c-1.8,0-3.2,0.3-4.2,0.9c-1,0.6-1.5,1.4-1.5,2.5c0,0.9,0.3,1.6,0.9,2.2c0.6,0.5,1.4,0.8,2.4,0.8
	c1.2,0,2.1-0.4,2.9-1.2c0.8-0.8,1.2-1.8,1.2-3.1V204.9L217.4,204.9z"/>
<path class="st0" d="M237.3,215.8c-2.4,0-4.5-0.5-6.2-1.5c-1.7-1-3.1-2.4-4.1-4.2c-1-1.8-1.4-4-1.4-6.5c0-2.5,0.5-4.6,1.5-6.4
	c1-1.8,2.4-3.3,4.2-4.3c1.8-1,3.9-1.5,6.2-1.5c1.1,0,2.1,0.1,3.1,0.4c1,0.3,1.8,0.6,2.4,1v5.5c-1.3-0.9-2.8-1.4-4.7-1.4
	s-3.3,0.6-4.4,1.8c-1.1,1.2-1.6,2.8-1.6,4.9s0.5,3.7,1.6,4.9c1.1,1.2,2.5,1.8,4.4,1.8c2,0,3.6-0.5,4.9-1.5v5.4
	c-0.7,0.5-1.5,0.8-2.6,1.1C239.7,215.7,238.5,215.8,237.3,215.8L237.3,215.8L237.3,215.8z M234.5,214.8h3.7l-0.8,2.9
	c1.4,0.1,2.5,0.6,3.3,1.4c0.8,0.8,1.2,1.8,1.2,2.9c0,1.6-0.6,2.8-1.8,3.7s-2.9,1.3-5.1,1.3c-0.9,0-1.8-0.1-2.9-0.4v-3.4
	c0.4,0.1,0.8,0.2,1.2,0.2c0.4,0,0.8,0.1,1.1,0.1c1.7,0,2.6-0.5,2.6-1.6c0-1-0.9-1.5-2.7-1.5H233L234.5,214.8L234.5,214.8
	L234.5,214.8z"/>
<path class="st0" d="M252.5,215.8c-2.3,0-4.1-0.6-5.5-1.8c-1.4-1.2-2.1-2.9-2.1-4.9c0-2.6,1-4.7,3.1-6.1s4.9-2.2,8.7-2.2
	c0.3,0,0.7,0,1,0c0.3,0,0.7,0,1,0.1c-0.3-2.6-2-3.9-5-3.9c-2.4,0-4.6,0.7-6.6,2.1v-5.3c2-1.4,4.6-2.2,7.7-2.2c3.3,0,5.9,0.9,7.6,2.6
	c1.8,1.7,2.7,4.2,2.7,7.5v13.6h-5.5l-0.4-2.4c-0.7,0.9-1.6,1.7-2.8,2.2C255.1,215.6,253.8,215.8,252.5,215.8L252.5,215.8
	L252.5,215.8z M258.9,189.3c-0.9,0-1.7-0.2-2.4-0.6c-0.7-0.4-1.3-0.8-1.9-1.2c-0.6-0.4-1.1-0.6-1.5-0.6c-0.8,0-1.2,0.6-1.2,2v0.4
	h-4.1v-0.4c0-2.1,0.4-3.6,1.2-4.7c0.8-1.1,2-1.6,3.6-1.6c0.9,0,1.7,0.2,2.4,0.6c0.7,0.4,1.3,0.8,1.9,1.2c0.5,0.4,1.1,0.6,1.5,0.6
	c0.8,0,1.2-0.6,1.2-2v-0.4h4.1v0.4c0,2.1-0.4,3.6-1.2,4.7C261.6,188.7,260.5,189.3,258.9,189.3L258.9,189.3z M258.6,204.9
	c-0.4,0-1,0-1.7,0c-1.8,0-3.2,0.3-4.2,0.9c-1,0.6-1.5,1.4-1.5,2.5c0,0.9,0.3,1.6,0.9,2.2c0.6,0.5,1.4,0.8,2.4,0.8
	c1.2,0,2.1-0.4,2.9-1.2s1.2-1.8,1.2-3.1L258.6,204.9L258.6,204.9z"/>
<path class="st0" d="M278,215.8c-2.3,0-4.3-0.5-5.9-1.5c-1.7-1-3-2.4-3.9-4.2c-0.9-1.8-1.4-4-1.4-6.4c0-2.5,0.5-4.6,1.4-6.4
	c0.9-1.8,2.3-3.3,3.9-4.3c1.7-1,3.7-1.5,5.9-1.5c2.3,0,4.3,0.5,5.9,1.5c1.7,1,3,2.4,3.9,4.2c0.9,1.8,1.4,4,1.4,6.4
	c0,2.5-0.5,4.6-1.4,6.4c-0.9,1.8-2.2,3.3-3.9,4.3C282.3,215.3,280.3,215.8,278,215.8L278,215.8L278,215.8z M278,210.4
	c1.4,0,2.5-0.6,3.3-1.8c0.8-1.2,1.2-2.8,1.2-4.9c0-2.1-0.4-3.8-1.2-5c-0.8-1.2-1.9-1.8-3.3-1.8s-2.5,0.6-3.3,1.8
	c-0.8,1.2-1.2,2.8-1.2,4.9c0,2.1,0.4,3.8,1.2,5C275.5,209.8,276.6,210.4,278,210.4L278,210.4z"/>
<path class="st0" d="M227.9,122l5.5,52.4h33.6v-68.2c0-18.9-15.3-34.2-34.2-34.2h-42.3l-6.8,31.8l19-2
	C215.4,100.4,226.6,109.5,227.9,122L227.9,122z"/>
</svg>
