<?xml version="1.0" encoding="utf-8"?>
<!-- Generator: Adobe Illustrator 24.3.2, SVG Export Plug-In . SVG Version: 6.00 Build 0)  -->
<svg version="1.1" id="Camada_1" xmlns="http://www.w3.org/2000/svg" xmlns:xlink="http://www.w3.org/1999/xlink" x="0px" y="0px"
	 viewBox="0 0 350 350" style="enable-background:new 0 0 350 350;" xml:space="preserve">
<style type="text/css">
	.st0{fill:#FFFFFF;}
	.st1{fill-rule:evenodd;clip-rule:evenodd;fill:#FFFFFF;}
</style>
<path class="st0" d="M26.1,157.8h0.2l5.2,16.9h11.2l-8.3-26.5c-0.6-2-2.1-2.6-3.8-2.6h-8.8c-1.7,0-3.2,0.6-3.8,2.6l-8.3,26.5h11.2
	L26.1,157.8L26.1,157.8z"/>
<path class="st0" d="M43.2,176.5H31.4l-5,10.1h-0.2l-5-10.1H9.3L0,204.6h11.5l5.2-16.3l6,10c0.3,0.4,0.6,0.6,1.7,0.6H28
	c1.1,0,1.5-0.2,1.7-0.6l6-10l5.2,16.3h11.5L43.2,176.5L43.2,176.5z"/>
<path class="st1" d="M86.5,171.6c5,0,9.5-2.4,9.5-9.9v-16h-4.8v16.2c0,4.1-1.6,5.6-4.8,5.6c-3.2,0-4.8-1.5-4.8-5.6v-16.2h-4.7v16
	C77.1,169.1,81.5,171.6,86.5,171.6L86.5,171.6z M110.5,152.5c-2.1,0-3.9,1.2-5.5,2.3v-2h-3.9v18.4h4.2V158c0.5-0.6,1.1-1.1,1.8-1.4
	c0.7-0.3,1.4-0.5,2.2-0.5c1.5,0,2.2,0.8,2.2,3.2v11.9h4.2v-12.6C115.8,154.9,114.1,152.5,110.5,152.5L110.5,152.5z M124.9,145.4
	h-4.2v4.1h4.2V145.4L124.9,145.4z M124.9,152.9h-4.2v18.4h4.2V152.9L124.9,152.9z M137.3,171.2l5.1-18.4h-4.2l-3,12.4h0l-3-12.4
	h-4.3l5,18.4H137.3L137.3,171.2z M151.1,171.6c3.4,0,5.8-1.1,7.5-3.7l-3.1-2c-1.1,1.3-2,2.2-4,2.2c-2,0-3.6-1.5-3.7-5.3h10.7V161
	c0-4.4-2.6-8.5-7.3-8.4c-4.8,0-7.7,3.7-7.7,9.5C143.6,167.8,146.5,171.6,151.1,171.6L151.1,171.6z M151.2,155.7c2.1,0,3.3,1.5,3.4,4
	h-6.9C147.9,157.2,149.2,155.7,151.2,155.7L151.2,155.7z M166,160.1c0-0.5,1.8-3,4-3c0.2,0,0.5,0,0.8,0v-4.6c-2.5,0-4,1.3-5,3.5h0
	v-3.1h-3.9v18.4h4.2V160.1L166,160.1z M179,168.3c-1.8,0-3.2-1.2-4.1-2.6l-2.8,2.2c0.7,1.2,1.7,2.1,2.9,2.8c1.2,0.7,2.5,1,3.9,0.9
	c3.8,0,6.5-1.7,6.5-5.5c0-6.7-8.9-5.4-8.9-8.5c0-1.1,0.8-1.8,2.4-1.8c1.3,0,2.4,1,3.3,1.9l2.7-2.4c-1.6-1.9-3.9-2.8-6.3-2.8
	c-3.1,0-5.9,1.9-5.9,5.3c0,6.4,8.9,5.3,8.9,8.4C181.6,167.5,180.5,168.3,179,168.3L179,168.3z M193.4,152.9h-4.2v18.4h4.2V152.9
	L193.4,152.9z M193.4,145.4h-4.2v4.1h4.2V145.4L193.4,145.4z M204.3,171.6c1.9,0,3.3-0.8,4.8-2.3l0.2,2h3.6v-25.5h-4.2v8.8h0
	c-0.8-1.2-2.9-2-4.3-2c-4.6,0-7.1,4.5-7.1,9C197.2,167.2,199.5,171.6,204.3,171.6L204.3,171.6z M205.4,156c1.4,0,2.4,0.8,3.3,1.6
	v8.8c-0.9,0.7-1.5,1.6-3.3,1.6c-2.5,0-4-2.1-4-6C201.4,158.1,202.8,156,205.4,156L205.4,156z M226.4,171.2h4.1
	c-0.2-0.8-0.4-1.7-0.3-2.6v-8.6c0-5.5-2.1-7.3-6.9-7.4c-2.6,0-5.6,1.4-6.6,3.3l2.7,2.2c0.8-1.2,1.9-2.3,3.9-2.3
	c1.5,0,2.6,0.8,2.6,2.2v1.6c-7,0.8-10.3,3.1-10.3,7.2c0,2.5,1.6,4.8,4.9,4.8c2.2,0,3.9-0.8,5.6-1.9L226.4,171.2L226.4,171.2z
	 M225.9,166.4c-0.9,0.8-2.6,1.9-3.9,1.9c-1.2,0-2.1-0.8-2.1-2.2c0-2.6,3.1-3.2,6-3.7V166.4L225.9,166.4z M240.4,171.6
	c1.9,0,3.3-0.8,4.9-2.3l0.2,2h3.6v-25.5h-4.2v8.8h0c-0.8-1.2-2.9-2-4.3-2c-4.6,0-7.1,4.5-7.1,9C233.3,167.2,235.7,171.6,240.4,171.6
	L240.4,171.6z M241.6,156c1.4,0,2.4,0.8,3.3,1.6v8.8c-0.9,0.7-1.5,1.6-3.3,1.6c-2.5,0-4-2.1-4-6C237.6,158.1,239,156,241.6,156
	L241.6,156z M264,165.8c-1.1,1.3-2,2.2-4,2.2c-2,0-3.6-1.5-3.7-5.3h10.8v-1.8c0-4.4-2.6-8.5-7.3-8.4c-4.9,0-7.7,3.7-7.7,9.5
	c0,5.8,2.9,9.5,7.5,9.5c3.4,0,5.8-1.1,7.5-3.7L264,165.8L264,165.8z M259.8,155.7c2.1,0,3.3,1.5,3.4,4h-6.9
	C256.4,157.2,257.7,155.7,259.8,155.7L259.8,155.7z M82.6,198.6h7.8l1.4,5.5h4.7l-7-25.5h-5.9l-7.2,25.5h4.7L82.6,198.6L82.6,198.6z
	 M86.5,183.5L86.5,183.5l2.8,11.1h-5.7L86.5,183.5L86.5,183.5z M104.2,190.9c0.5-0.6,1.1-1.1,1.8-1.4c0.7-0.3,1.4-0.5,2.2-0.5
	c1.5,0,2.2,0.8,2.2,3.2v11.9h4.2v-12.6c0-3.7-1.7-6.1-5.3-6.1c-2.1,0-3.9,1.2-5.5,2.3v-2H100v18.4h4.2V190.9L104.2,190.9z
	 M123.2,190.9c0.5-0.6,1.1-1.1,1.8-1.4c0.7-0.3,1.4-0.5,2.2-0.5c1.5,0,2.2,0.8,2.2,3.2v11.9h4.3v-12.6c0-3.7-1.7-6.1-5.3-6.1
	c-2.1,0-3.8,1.2-5.1,2.3v-9.1H119v25.5h4.2L123.2,190.9L123.2,190.9L123.2,190.9z M144.4,185.4c-4.9,0-7.7,3.7-7.7,9.5
	c0,5.8,2.9,9.5,7.5,9.5c3.4,0,5.8-1.1,7.5-3.7l-3.1-2c-1,1.3-2,2.2-4,2.2s-3.6-1.5-3.7-5.3h10.7v-1.8
	C151.7,189.4,149.1,185.4,144.4,185.4L144.4,185.4z M140.9,192.7c0-2.5,1.4-4,3.4-4c2.1,0,3.3,1.5,3.4,4H140.9L140.9,192.7z
	 M165.1,191.2v12.8h4.2v-13.2c1-0.9,2.4-2,3.6-2c1.6,0.1,2.1,0.9,2.1,2.4v12.8h4.2v-13.2c0-4.4-2.5-5.5-4.4-5.5
	c-3,0-4.7,1.2-6.1,2.7c-0.8-1.7-2.5-2.7-4.4-2.7c-2.4,0-3.7,0.8-5.4,2.3v-2h-3.9v18.4h4.2v-13.2c1-0.9,2.4-2,3.6-2
	C164.5,189,165.1,189.8,165.1,191.2L165.1,191.2z M183.7,178.6v25.5h3.3l0.5-2c1.5,1.5,2.9,2.3,4.8,2.3c4.7,0,7.1-4.3,7.1-10
	c0-4.5-2.5-9-7.1-9c-1.5,0-3.4,0.9-4.3,2H188v-8.8L183.7,178.6L183.7,178.6z M191.3,188.9c2.5,0,4,2.1,4,6s-1.5,6-4,6
	c-1.8,0-2.4-0.9-3.3-1.6v-8.8C188.8,189.6,189.9,188.9,191.3,188.9L191.3,188.9z M206.7,178.2h-4.2v4.1h4.2V178.2L206.7,178.2z
	 M202.4,204.1h4.2v-18.3h-4.2V204.1L202.4,204.1z M227.3,184L227.3,184l5.6,20.1h3.6l5.6-20h0.1v20h4.1v-25.5h-6.7l-4.8,17.8h-0.1
	l-4.8-17.8h-6.7v25.5h4.1V184L227.3,184z M257.5,185.4c-4.8,0-7.8,3.7-7.8,9.5c0,5.8,2.9,9.5,7.8,9.5c4.9,0,7.7-3.7,7.7-9.5
	C265.2,189.1,262.3,185.4,257.5,185.4L257.5,185.4z M257.5,200.9c-2.4,0-3.5-1.9-3.5-6c0-4.1,1.1-6,3.5-6c2.4,0,3.5,1.9,3.5,6
	C261,199,259.8,200.9,257.5,200.9L257.5,200.9z M271.9,188.8L271.9,188.8l0-3.1H268v18.4h4.2V193c0-0.5,1.8-3,4-3c0.2,0,0.5,0,0.8,0
	v-4.6C274.4,185.5,272.9,186.7,271.9,188.8L271.9,188.8z M284.9,204.4c2.1,0,3.9-1.2,5.5-2.3v2h3.9v-18.4h-4.2V199
	c-0.5,0.6-1.1,1.1-1.8,1.4c-0.7,0.3-1.4,0.5-2.2,0.5c-1.5,0-2.2-0.8-2.2-3.2v-11.9h-4.2v12.6C279.6,202,281.4,204.4,284.9,204.4
	L284.9,204.4z M318.4,185.4c-3,0-4.7,1.2-6.1,2.7c-0.8-1.7-2.5-2.7-4.4-2.7c-2.4,0-3.8,0.8-5.4,2.3v-2h-3.9v18.4h4.3v-13.2
	c1-0.9,2.4-2,3.6-2c1.6,0.1,2.1,0.9,2.1,2.4v12.8h4.2v-13.2c1-0.9,2.4-2,3.6-2c1.6,0.1,2.1,0.9,2.1,2.4v12.8h4.2v-13.2
	C322.8,186.5,320.3,185.4,318.4,185.4L318.4,185.4z M331,202.1c1.5,1.5,2.9,2.3,4.8,2.3c4.7,0,7.1-4.3,7.1-10c0-4.5-2.5-9-7.1-9
	c-1.5,0-3.5,0.9-4.3,2h-0.1v-8.8h-4.2V204h3.3L331,202.1L331,202.1z M331.5,190.5c0.8-0.8,1.9-1.6,3.3-1.6c2.5,0,4,2.1,4,6
	c0,3.9-1.4,6-4,6c-1.8,0-2.4-0.9-3.3-1.6V190.5L331.5,190.5z M351,178.2h-4.2v4.1h4.2V178.2L351,178.2z M351,185.7h-4.2v18.4h4.2
	V185.7L351,185.7z M63.6,204.6h0.6v-59h-0.6V204.6L63.6,204.6z"/>
</svg>
