<svg width="172" height="80" viewBox="0 0 172 80" fill="none" xmlns="http://www.w3.org/2000/svg">
<path fill-rule="evenodd" clip-rule="evenodd" d="M82.8638 0.555183C82.3934 0.860582 81.9893 1.12984 81.9655 1.15348C81.9418 1.17722 81.971 1.33583 82.0305 1.50616C82.1527 1.85613 82.0647 1.8633 83.3583 1.399C84.2448 1.08081 84.2227 1.12558 83.8747 0.347934L83.719 0L82.8638 0.555183ZM12.7064 2.28187C11.7555 2.48185 11.3487 3.03655 11.2803 4.22656C11.2311 5.08346 11.3636 5.66005 11.7021 6.06167C12.018 6.43634 12.3339 6.53071 13.6862 6.65415C14.3002 6.71025 14.8759 6.77866 14.9657 6.80627C15.1935 6.87632 15.2807 7.36455 15.1239 7.69195C14.9995 7.95152 14.9634 7.96295 14.1827 7.99018C13.2864 8.02147 13.0068 7.896 13.0068 7.46241C13.0068 7.24063 12.9856 7.2352 12.1194 7.2352H11.2319L11.2941 7.82943C11.3705 8.55921 11.6823 9.14656 12.1332 9.4103C12.4362 9.58751 12.6355 9.60902 13.9774 9.60902C15.4103 9.60902 15.5086 9.59652 16.043 9.34655C16.7865 8.99881 16.9813 8.60184 16.9843 7.42831C16.9889 5.65075 16.5806 5.27908 14.4726 5.14169C13.325 5.06689 13.1038 4.9513 13.1038 4.42654C13.1038 3.94645 13.2746 3.84404 14.0745 3.84404C14.7879 3.84404 15.0451 3.9605 15.0451 4.28343C15.0451 4.51985 15.0541 4.52227 15.932 4.52227H16.8189L16.7691 3.90362C16.7085 3.14943 16.4978 2.77 15.976 2.47555C15.6248 2.27732 15.4334 2.24902 14.3172 2.23003C13.6231 2.21821 12.8983 2.24156 12.7064 2.28187ZM47.1101 2.29146C46.6196 2.39601 46.0165 2.69394 45.8024 2.93753C45.3122 3.49494 45.281 3.67341 45.281 5.92718C45.281 8.02118 45.2853 8.06643 45.5237 8.49052C46.0295 9.39034 46.9234 9.7125 48.7014 9.63547C49.5602 9.59836 49.7708 9.55389 50.2523 9.30798C50.7342 9.06198 50.8493 8.9461 51.1029 8.45108L51.3962 7.87865V5.98251C51.3962 3.88609 51.337 3.57487 50.8277 2.99595C50.3441 2.4461 49.8281 2.27131 48.5848 2.23594C47.9956 2.21918 47.332 2.24418 47.1101 2.29146ZM122.334 2.29805C121.452 2.47216 120.923 2.9322 120.689 3.72864C120.459 4.51239 120.531 8.01362 120.787 8.49478C121.041 8.97303 121.227 9.16342 121.672 9.40129C122.021 9.58809 122.212 9.60902 123.564 9.60902C125.029 9.60902 125.081 9.60195 125.521 9.34393C126.09 9.00976 126.339 8.50796 126.412 7.5501L126.465 6.84764H125.557H124.649L124.585 7.22658C124.491 7.77973 124.257 7.9457 123.571 7.9457C122.865 7.9457 122.53 7.75357 122.445 7.30031C122.411 7.12213 122.398 6.37656 122.416 5.64358C122.446 4.37887 122.46 4.30146 122.677 4.12589C122.849 3.98705 123.061 3.94093 123.527 3.94093C124.245 3.94093 124.535 4.13568 124.535 4.61916V4.90983H125.502H126.469L126.415 4.25582C126.318 3.09323 125.859 2.45123 125.007 2.28691C124.478 2.18488 122.874 2.19166 122.334 2.29805ZM137.255 2.2964C136.567 2.44116 135.987 2.85565 135.703 3.40609C135.469 3.85857 135.453 3.98714 135.421 5.59814C135.371 8.19355 135.603 8.89145 136.681 9.37135C137.139 9.57559 137.348 9.60389 138.415 9.60631C139.874 9.6096 140.431 9.47318 140.941 8.98728C141.5 8.45554 141.619 7.92012 141.619 5.92495C141.619 3.5742 141.402 2.97909 140.376 2.51014C139.93 2.30638 139.669 2.26201 138.766 2.23623C138.173 2.21937 137.493 2.24641 137.255 2.2964ZM149.901 2.29175C149.071 2.46848 148.418 3.02473 148.225 3.72031C148.169 3.92155 148.123 4.96419 148.122 6.03725C148.122 7.98591 148.122 7.98882 148.393 8.50718C148.622 8.94377 148.756 9.07244 149.236 9.31758C149.788 9.59924 149.851 9.60902 151.124 9.60902C152.92 9.60902 153.479 9.38336 153.974 8.45835C154.177 8.08106 154.188 7.93979 154.188 5.92718C154.188 3.90469 154.177 3.77476 153.971 3.38942C153.729 2.93811 153.295 2.57564 152.781 2.39513C152.354 2.24544 150.441 2.17684 149.901 2.29175ZM156.988 2.29776C155.462 2.59928 155.024 3.60026 155.145 6.50853C155.21 8.07408 155.301 8.47085 155.703 8.92711C156.194 9.48529 156.685 9.60902 158.411 9.60902C159.835 9.60902 159.939 9.59604 160.352 9.3668C161.058 8.97555 161.232 8.51193 161.298 6.85026L161.352 5.49117H159.784H158.217V6.16941V6.84764H158.86H159.504L159.449 7.25846C159.371 7.83999 159.123 8.01033 158.356 8.01033C157.15 8.01033 157 7.77702 157.01 5.91604C157.021 4.05593 157.16 3.84404 158.371 3.84404C158.912 3.84404 159.036 3.87814 159.24 4.0819C159.371 4.2127 159.479 4.36531 159.479 4.42102C159.479 4.48429 159.824 4.52227 160.401 4.52227C161.449 4.52227 161.413 4.56277 161.213 3.63078C161.062 2.92784 160.591 2.45743 159.886 2.30687C159.305 2.18265 157.598 2.17732 156.988 2.29776ZM0.194131 5.97563V9.65747H1.06772H1.94131V5.97563V2.29379H1.06772H0.194131V5.97563ZM3.39729 5.97563V9.65747H4.28651H5.17572L5.11137 6.7992C5.07604 5.22715 5.06643 3.94093 5.09011 3.94093C5.1138 3.94093 5.55214 5.22715 6.06416 6.7992L6.99512 9.65747H8.54496H10.0948V5.97563V2.29379H9.1888H8.28279L8.31637 5.07939L8.35006 7.86499L7.42473 5.2005C6.91572 3.73503 6.4798 2.48156 6.45592 2.4149C6.4236 2.32508 6.02301 2.29379 4.90481 2.29379H3.39729V5.97563ZM17.6659 3.11736V3.94093H18.491H19.316V6.7992V9.65747H20.2381H21.1603V6.7992V3.94093H22.0339H22.9074V3.11736V2.29379H20.2867H17.6659V3.11736ZM23.781 5.97563V9.65747H24.7032H25.6253V5.97563V2.29379H24.7032H23.781V5.97563ZM26.4989 3.11736V3.94093H27.3239H28.149V6.7992V9.65747H29.0711H29.9932V6.7992V3.94093H30.8668H31.7404V3.11736V2.29379H29.1196H26.4989V3.11736ZM32.6172 4.78872C32.622 8.54904 32.6986 8.8929 33.6382 9.3668C34.0848 9.59207 34.2173 9.60902 35.5284 9.60902C36.8475 9.60902 36.969 9.59323 37.4173 9.36302C37.7893 9.17195 37.9515 9.01014 38.1429 8.63925C38.3886 8.16303 38.3895 8.15218 38.4189 5.22763L38.4484 2.29379H37.521H36.5937V4.94326C36.5937 7.34556 36.5779 7.60659 36.4238 7.74078C36.0385 8.0768 34.8498 8.02341 34.5823 7.65813C34.4889 7.53072 34.4582 6.84658 34.4582 4.89132V2.29379H33.5361H32.614L32.6172 4.78872ZM39.3115 3.11358V3.93337L40.1608 3.96137L41.0102 3.98937L41.0359 6.82342L41.0616 9.65747H41.9337H42.8059V6.7992V3.94093H43.728H44.6501V3.11736V2.29379H41.9808H39.3115V3.11358ZM56.5892 5.97301V9.65747H57.4733H58.3574L58.291 7.0172C58.2544 5.56501 58.2006 4.28973 58.1713 4.18315C58.142 4.07657 58.1552 4.02464 58.2006 4.06785C58.2461 4.11097 58.6575 5.37539 59.115 6.87768L59.9468 9.60902L60.7233 9.63683L61.4998 9.66464L62.3096 6.97234C63.1202 4.27752 63.3335 3.67438 63.2446 4.32849C63.2192 4.515 63.1713 5.79028 63.1381 7.16254L63.0776 9.65747H63.9587H64.8397V5.97563V2.29379H63.3875H61.9352L61.8401 2.65713C61.7878 2.85701 61.5232 3.86787 61.2521 4.90373C60.9809 5.93949 60.7438 6.8023 60.7249 6.821C60.7061 6.83979 60.5066 6.18859 60.2816 5.37384C60.0565 4.55909 59.7734 3.54367 59.6523 3.11736L59.4321 2.34223L58.0107 2.31539L56.5892 2.28865V5.97301ZM66.602 5.90509C66.0598 7.89125 65.6163 9.54808 65.6163 9.58693C65.6163 9.62569 66.0281 9.65747 66.5315 9.65747H67.4467L67.6037 9.10035C67.6901 8.79398 67.7792 8.48877 67.8017 8.42211C67.8314 8.33423 68.1621 8.301 69.0068 8.301H70.1709L70.2769 8.71278C70.5271 9.6844 70.4294 9.60573 71.4238 9.63693C72.1575 9.65989 72.3138 9.63954 72.3138 9.52134C72.3138 9.44247 71.877 7.8054 71.3431 5.88358C70.8093 3.96166 70.3725 2.36771 70.3725 2.34146C70.3725 2.3153 69.7459 2.29379 68.9801 2.29379H67.5877L66.602 5.90509ZM73.0922 4.83716C73.0951 8.54633 73.1731 8.89203 74.1145 9.3668C74.561 9.59197 74.6937 9.60902 76.0023 9.60902C77.258 9.60902 77.4515 9.58654 77.798 9.40042C78.2616 9.15141 78.5655 8.84165 78.7341 8.44634C78.8225 8.23899 78.8682 7.31591 78.8936 5.22473L78.9292 2.29379H77.9996H77.07V4.94326C77.07 7.34556 77.0542 7.60659 76.9001 7.74078C76.5148 8.0768 75.3261 8.02341 75.0586 7.65813C74.9652 7.53072 74.9345 6.84658 74.9345 4.89132V2.29379H74.0124H73.0903L73.0922 4.83716ZM81.6321 2.34194C81.6321 2.36839 81.1953 3.97532 80.6614 5.91284C80.1275 7.85036 79.6907 9.48549 79.6907 9.54653C79.6907 9.62201 79.9841 9.65747 80.6091 9.65747H81.5275L81.6335 9.24568C81.8879 8.25788 81.7435 8.34945 83.0476 8.34945H84.2043L84.4046 8.97923L84.605 9.60902L85.4966 9.63693C85.987 9.65224 86.3884 9.63044 86.3885 9.58848C86.3886 9.54643 85.9411 7.88805 85.3939 5.90296L84.3989 2.29379H83.0155C82.2546 2.29379 81.6321 2.31549 81.6321 2.34194ZM91.0474 5.98144V9.68188L93.3042 9.63412C95.812 9.58102 96.0373 9.53325 96.5558 8.94368C97.0577 8.37309 97.114 8.06401 97.114 5.87874C97.114 3.9356 97.1086 3.88192 96.8644 3.40803C96.6869 3.06349 96.479 2.83967 96.1444 2.6329L95.6739 2.34223L93.3607 2.31171L91.0474 2.28109V5.98144ZM98.4244 5.97563V9.65747H100.851H103.278V8.83632V8.01527L101.749 7.98853L100.22 7.96188V7.28365V6.60542L101.652 6.57858L103.084 6.55184V5.87612V5.2005H101.623H100.163L100.191 4.54649L100.22 3.89248L101.749 3.86584L103.278 3.83909V3.06649V2.29379H100.851H98.4244V5.97563ZM108.228 3.11736V3.94093H109.102H109.975V6.7992V9.65747H110.849H111.722V6.7992V3.94093H112.644H113.567V3.11736V2.29379H110.897H108.228V3.11736ZM114.44 5.97563V9.65747H116.867H119.293V8.83632V8.01527L117.765 7.98853L116.236 7.96188V7.28365V6.60542L117.668 6.57858L119.099 6.55184V5.87612V5.2005H117.639H116.179L116.207 4.54649L116.236 3.89248L117.765 3.86584L119.293 3.83909V3.06649V2.29379H116.867H114.44V5.97563ZM127.544 5.97563V9.65747H128.47H129.396L129.343 6.82342L129.29 3.98937L130.245 6.7992L131.2 9.60902L132.721 9.63567L134.242 9.66241V5.97805V2.29379H133.353H132.466L132.53 5.07939C132.567 6.69678 132.558 7.80405 132.509 7.71966C132.461 7.63972 132.018 6.38625 131.523 4.93405L130.623 2.29379H129.084H127.544V5.97563ZM142.783 5.97563V9.65747H145.064H147.345V8.78545V7.91344H145.938H144.53V5.10361V2.29379H143.657H142.783V5.97563ZM162.488 5.97563V9.65747H163.41H164.332V5.97563V2.29379H163.41H162.488V5.97563ZM166.917 2.79985C166.466 4.35223 165.108 9.39606 165.108 9.5162C165.108 9.62995 165.286 9.65747 166.02 9.65747H166.932L167.099 8.97633L167.266 8.29519L168.441 8.32232L169.615 8.34945L169.802 9.00346L169.989 9.65747H170.898C171.397 9.65747 171.804 9.62472 171.802 9.5848C171.801 9.54488 171.35 7.8989 170.8 5.92718L169.802 2.34223L168.433 2.31539L167.065 2.28855L166.917 2.79985ZM68.5956 5.32249C68.3961 6.13462 68.2338 6.83195 68.235 6.87186C68.2373 6.95432 69.7901 6.9736 69.7901 6.89115C69.7901 6.76209 69.0912 4.08277 69.0282 3.97057C68.9893 3.9011 68.7974 4.50057 68.5956 5.32249ZM82.6715 5.24062C82.4735 6.00421 82.3115 6.69998 82.3115 6.7867C82.3115 6.91934 82.4353 6.94453 83.088 6.94453C83.5151 6.94453 83.8637 6.91178 83.8626 6.87186C83.8597 6.76054 83.1003 3.92087 83.0638 3.88434C83.0461 3.86671 82.8695 4.47702 82.6715 5.24062ZM168.323 4.19759C167.911 5.76218 167.664 6.84706 167.709 6.89163C167.779 6.96168 169.137 6.96003 169.207 6.88989C169.256 6.84163 168.536 3.94422 168.454 3.85847C168.436 3.83977 168.377 3.99237 168.323 4.19759ZM47.3545 4.12589C47.1369 4.30146 47.1236 4.37887 47.0932 5.64358C47.0542 7.26243 47.1035 7.57238 47.4346 7.78893C47.7307 7.98252 48.8534 8.0082 49.1888 7.82905C49.5134 7.65561 49.623 7.05547 49.5854 5.65618C49.5524 4.42712 49.5478 4.40503 49.2796 4.17472C49.0452 3.97358 48.9079 3.94093 48.2954 3.94093C47.7396 3.94093 47.5333 3.98143 47.3545 4.12589ZM92.8916 5.92718V7.91344H93.7104C95.1942 7.91344 95.3183 7.75647 95.3183 5.87874C95.3183 4.49553 95.2144 4.11048 94.8126 4.00303C94.6904 3.97028 94.2081 3.94296 93.741 3.94228L92.8916 3.94093V5.92718ZM137.571 4.17472C137.303 4.40503 137.299 4.42712 137.266 5.65618C137.228 7.05547 137.338 7.65561 137.662 7.82905C137.998 8.0082 139.12 7.98252 139.416 7.78893C139.747 7.57238 139.797 7.26243 139.758 5.64358C139.727 4.37887 139.714 4.30146 139.497 4.12589C139.318 3.98143 139.111 3.94093 138.556 3.94093C137.943 3.94093 137.806 3.97358 137.571 4.17472ZM150.213 4.17017C149.926 4.45706 149.825 5.16233 149.892 6.43092C149.949 7.52578 150.112 7.82624 150.705 7.9332C151.284 8.03765 151.911 7.91915 152.175 7.65522C152.402 7.4285 152.406 7.39788 152.375 5.86769C152.345 4.36637 152.336 4.30436 152.115 4.12589C151.936 3.98094 151.73 3.94093 151.164 3.94093C150.535 3.94093 150.413 3.97019 150.213 4.17017ZM0 50.1093V80H29.8962H59.7923V50.1093V20.2185H29.8962H0V50.1093ZM74.061 24.3364V28.4542H123.03H172V24.3364V20.2185H123.03H74.061V24.3364ZM28.1005 20.7044C19.384 21.2238 11.2915 25.634 6.03902 32.7276C2.44644 37.5794 0.49416 43.2329 0.32119 49.2857C0.216844 52.9362 0.666063 56.0173 1.79843 59.4176C3.25189 63.7825 5.63572 67.6113 8.97487 70.9444C13.7191 75.6801 19.344 78.4448 26.2562 79.4384C27.4442 79.6091 32.1633 79.6067 33.3905 79.4347C37.1074 78.9138 40.04 78.0065 43.2157 76.3953C49.6534 73.1289 54.6418 67.6568 57.3076 60.9373C60.3106 53.3678 60.0287 44.8945 56.5302 37.5716C53.8275 31.9145 49.4191 27.2578 43.9166 24.2472C39.1996 21.6665 33.4752 20.3842 28.1005 20.7044ZM9.12415 50.1577V70.8923H29.8476H50.5711V50.1577V29.4231H29.8476H9.12415V50.1577ZM28.1975 29.776C25.1765 30.1197 23.2985 30.6402 20.9176 31.7934C15.9166 34.2157 12.1102 38.5636 10.3887 43.8201C8.43557 49.7845 9.29975 56.1465 12.7769 61.4017C17.3823 68.3622 25.7218 71.8186 33.9244 70.1665C41.7652 68.5874 48.0963 62.3573 49.827 54.5178C50.222 52.7284 50.3094 51.7094 50.2533 49.5505C50.1868 46.9971 49.8585 45.2562 49.0274 43.0507C46.0041 35.0274 38.2275 29.6541 29.7506 29.7313C29.0565 29.7376 28.3577 29.7578 28.1975 29.776ZM159.979 34.6023C158.412 35.5266 157.095 36.3198 157.053 36.3652C156.956 36.4676 157.72 38.1433 157.862 38.1433C157.969 38.1433 164.254 36.1978 164.321 36.1438C164.371 36.1043 162.94 32.9095 162.876 32.9166C162.849 32.9195 161.545 33.6782 159.979 34.6023ZM75.7111 50.4959V61.397H78.6308H81.5506L81.4892 60.1132C81.4254 58.7821 80.9529 45.4686 80.9527 44.9983C80.9526 44.8518 80.9927 44.7318 81.0416 44.7318C81.0905 44.7318 82.3827 48.4815 83.9131 53.0644L86.6957 61.397H89.2039H91.7122L94.4461 53.1371C95.9497 48.5941 97.2189 44.8365 97.2667 44.7868C97.3143 44.737 97.371 44.7152 97.3925 44.7383C97.414 44.7614 97.307 48.2247 97.1547 52.4346C97.0024 56.6445 96.8763 60.3833 96.8745 60.743L96.8713 61.397H99.7833H102.695V50.4968V39.5966H97.9534H93.2116L92.7245 41.268C92.4566 42.1873 91.5656 45.2609 90.7446 48.0982C89.9235 50.9356 89.208 53.2567 89.1546 53.2562C89.1012 53.2556 88.1346 50.1929 87.0064 46.4501L84.9552 39.6451L80.3331 39.6199L75.7111 39.5948V50.4959ZM111.185 39.7178C111.032 40.1199 104.734 61.1561 104.734 61.2643C104.734 61.3738 105.259 61.397 107.736 61.397C110.512 61.397 110.742 61.3842 110.788 61.2275C110.815 61.1343 110.974 60.5783 111.141 59.9921C111.308 59.4059 111.531 58.6315 111.636 58.2712L111.828 57.6161L115.723 57.6414L119.618 57.6667L119.851 58.4419C119.98 58.8682 120.237 59.7075 120.422 60.307L120.76 61.397H123.715C125.341 61.397 126.67 61.3714 126.67 61.3401C126.67 61.2835 120.486 40.929 120.203 40.0569L120.054 39.5966H115.643C112.203 39.5966 111.221 39.6233 111.185 39.7178ZM128.832 48.1472C128.87 57.5867 128.854 57.3413 129.494 58.6377C130.176 60.0215 131.54 60.8222 133.95 61.2541C135.173 61.4732 139.805 61.5672 141.229 61.4019C144.155 61.0624 145.954 60.0519 146.796 58.2747C147.516 56.7571 147.481 57.2619 147.516 47.9535L147.547 39.5966H144.631H141.716V47.1365C141.716 55.5362 141.725 55.3965 141.089 55.9539C140.6 56.3834 139.961 56.481 137.943 56.4352C136.576 56.4042 136.148 56.3612 135.82 56.2222C135.316 56.0088 134.869 55.5177 134.733 55.0291C134.666 54.7882 134.631 52.0877 134.63 47.1299L134.63 39.5966H131.713H128.797L128.832 48.1472ZM156.13 39.7168C156.046 39.9521 149.787 60.8669 149.721 61.1306L149.654 61.397H152.669H155.685L155.876 60.743C155.982 60.3833 156.205 59.6094 156.371 59.0232C156.538 58.437 156.697 57.8811 156.724 57.7878C156.77 57.63 157.043 57.6183 160.677 57.6183H164.58L165.151 59.5077L165.721 61.397H168.666C170.958 61.397 171.612 61.3702 171.611 61.2759C171.61 61.2093 170.134 56.3151 168.33 50.3999L165.05 39.6451L160.611 39.6199C157.111 39.6 156.164 39.6205 156.13 39.7168ZM159.367 48.6321L158.058 53.3067L160.675 53.3324C162.115 53.3467 163.313 53.339 163.336 53.3154C163.374 53.2783 160.768 44.0489 160.701 43.9825C160.688 43.9687 160.087 46.0611 159.367 48.6321ZM115.661 44.1609C115.636 44.2351 115.065 46.2579 114.394 48.6559C113.722 51.054 113.149 53.0923 113.12 53.1855C113.072 53.3442 113.241 53.3551 115.751 53.3551C118.26 53.3551 118.43 53.3442 118.382 53.1855C118.354 53.0923 117.758 51.0106 117.058 48.5596C116.357 46.1087 115.767 44.0859 115.745 44.0646C115.724 44.0433 115.686 44.0867 115.661 44.1609ZM74.061 75.9306V80H123.03H172V75.9306V71.8612H123.03H74.061V75.9306Z" fill="white"/>
</svg>
